  0
SECTION
  2
HEADER
  9
$ACADVER
  1
AC1014
  9
$ACADMAINTVER
 70
     9
  9
$DWGCODEPAGE
  3
ANSI_1252
  9
$INSBASE
 10
0.0
 20
0.0
 30
0.0
  9
$EXTMIN
 10
-1.870000000000008
 20
-7.035
 30
0.0
  9
$EXTMAX
 10
7.690000000000001
 20
0.7000000000000011
 30
0.0
  9
$LIMMIN
 10
0.0
 20
0.0
  9
$LIMMAX
 10
12.0
 20
9.0
  9
$ORTHOMODE
 70
     0
  9
$REGENMODE
 70
     1
  9
$FILLMODE
 70
     1
  9
$QTEXTMODE
 70
     0
  9
$MIRRTEXT
 70
     0
  9
$DRAGMODE
 70
     2
  9
$LTSCALE
 40
1.0
  9
$OSMODE
 70
   511
  9
$ATTMODE
 70
     1
  9
$TEXTSIZE
 40
0.2
  9
$TRACEWID
 40
0.05
  9
$TEXTSTYLE
  7
STANDARD
  9
$CLAYER
  8
0
  9
$CELTYPE
  6
BYLAYER
  9
$CECOLOR
 62
   256
  9
$CELTSCALE
 40
1.0
  9
$DELOBJ
 70
     1
  9
$DISPSILH
 70
     0
  9
$DIMSCALE
 40
1.0
  9
$DIMASZ
 40
0.18
  9
$DIMEXO
 40
0.0625
  9
$DIMDLI
 40
0.38
  9
$DIMRND
 40
0.0
  9
$DIMDLE
 40
0.0
  9
$DIMEXE
 40
0.18
  9
$DIMTP
 40
0.0
  9
$DIMTM
 40
0.0
  9
$DIMTXT
 40
0.18
  9
$DIMCEN
 40
0.09
  9
$DIMTSZ
 40
0.0
  9
$DIMTOL
 70
     0
  9
$DIMLIM
 70
     0
  9
$DIMTIH
 70
     1
  9
$DIMTOH
 70
     1
  9
$DIMSE1
 70
     0
  9
$DIMSE2
 70
     0
  9
$DIMTAD
 70
     0
  9
$DIMZIN
 70
     0
  9
$DIMBLK
  1

  9
$DIMASO
 70
     1
  9
$DIMSHO
 70
     1
  9
$DIMPOST
  1

  9
$DIMAPOST
  1

  9
$DIMALT
 70
     0
  9
$DIMALTD
 70
     2
  9
$DIMALTF
 40
25.4
  9
$DIMLFAC
 40
1.0
  9
$DIMTOFL
 70
     0
  9
$DIMTVP
 40
0.0
  9
$DIMTIX
 70
     0
  9
$DIMSOXD
 70
     0
  9
$DIMSAH
 70
     0
  9
$DIMBLK1
  1

  9
$DIMBLK2
  1

  9
$DIMSTYLE
  2
STANDARD
  9
$DIMCLRD
 70
     0
  9
$DIMCLRE
 70
     0
  9
$DIMCLRT
 70
     0
  9
$DIMTFAC
 40
1.0
  9
$DIMGAP
 40
0.09
  9
$DIMJUST
 70
     0
  9
$DIMSD1
 70
     0
  9
$DIMSD2
 70
     0
  9
$DIMTOLJ
 70
     1
  9
$DIMTZIN
 70
     0
  9
$DIMALTZ
 70
     0
  9
$DIMALTTZ
 70
     0
  9
$DIMFIT
 70
     3
  9
$DIMUPT
 70
     0
  9
$DIMUNIT
 70
     2
  9
$DIMDEC
 70
     4
  9
$DIMTDEC
 70
     4
  9
$DIMALTU
 70
     2
  9
$DIMALTTD
 70
     2
  9
$DIMTXSTY
  7
STANDARD
  9
$DIMAUNIT
 70
     0
  9
$LUNITS
 70
     2
  9
$LUPREC
 70
     4
  9
$SKETCHINC
 40
0.1
  9
$FILLETRAD
 40
0.0
  9
$AUNITS
 70
     0
  9
$AUPREC
 70
     0
  9
$MENU
  1
.
  9
$ELEVATION
 40
0.0
  9
$PELEVATION
 40
0.0
  9
$THICKNESS
 40
0.0
  9
$LIMCHECK
 70
     0
  9
$CHAMFERA
 40
0.0
  9
$CHAMFERB
 40
0.0
  9
$CHAMFERC
 40
0.0
  9
$CHAMFERD
 40
0.0
  9
$SKPOLY
 70
     0
  9
$TDCREATE
 40
2452642.855050937
  9
$TDUPDATE
 40
2458235.577189317
  9
$TDINDWG
 40
0.1328726273
  9
$TDUSRTIMER
 40
2458235.611653403
  9
$USRTIMER
 70
     1
  9
$ANGBASE
 50
0.0
  9
$ANGDIR
 70
     0
  9
$PDMODE
 70
     0
  9
$PDSIZE
 40
0.0
  9
$PLINEWID
 40
0.0
  9
$COORDS
 70
     1
  9
$SPLFRAME
 70
     0
  9
$SPLINETYPE
 70
     6
  9
$SPLINESEGS
 70
     8
  9
$ATTDIA
 70
     0
  9
$ATTREQ
 70
     1
  9
$HANDLING
 70
     1
  9
$HANDSEED
  5
334
  9
$SURFTAB1
 70
     6
  9
$SURFTAB2
 70
     6
  9
$SURFTYPE
 70
     6
  9
$SURFU
 70
     6
  9
$SURFV
 70
     6
  9
$UCSNAME
  2

  9
$UCSORG
 10
0.0
 20
0.0
 30
0.0
  9
$UCSXDIR
 10
1.0
 20
0.0
 30
0.0
  9
$UCSYDIR
 10
0.0
 20
1.0
 30
0.0
  9
$PUCSNAME
  2

  9
$PUCSORG
 10
0.0
 20
0.0
 30
0.0
  9
$PUCSXDIR
 10
1.0
 20
0.0
 30
0.0
  9
$PUCSYDIR
 10
0.0
 20
1.0
 30
0.0
  9
$USERI1
 70
     0
  9
$USERI2
 70
     0
  9
$USERI3
 70
     0
  9
$USERI4
 70
     0
  9
$USERI5
 70
     0
  9
$USERR1
 40
0.0
  9
$USERR2
 40
0.0
  9
$USERR3
 40
0.0
  9
$USERR4
 40
0.0
  9
$USERR5
 40
0.0
  9
$WORLDVIEW
 70
     1
  9
$SHADEDGE
 70
     3
  9
$SHADEDIF
 70
    70
  9
$TILEMODE
 70
     1
  9
$MAXACTVP
 70
    64
  9
$PINSBASE
 10
0.0
 20
0.0
 30
0.0
  9
$PLIMCHECK
 70
     0
  9
$PEXTMIN
 10
0.0
 20
0.0
 30
0.0
  9
$PEXTMAX
 10
0.0
 20
0.0
 30
0.0
  9
$PLIMMIN
 10
0.0
 20
0.0
  9
$PLIMMAX
 10
0.0
 20
0.0
  9
$UNITMODE
 70
     0
  9
$VISRETAIN
 70
     1
  9
$PLINEGEN
 70
     0
  9
$PSLTSCALE
 70
     1
  9
$TREEDEPTH
 70
  3020
  9
$PICKSTYLE
 70
     1
  9
$CMLSTYLE
  2
STANDARD
  9
$CMLJUST
 70
     0
  9
$CMLSCALE
 40
1.0
  9
$PROXYGRAPHICS
 70
     1
  9
$MEASUREMENT
 70
     0
  0
ENDSEC
  0
SECTION
  2
CLASSES
  0
CLASS
  1
ACDBDICTIONARYWDFLT
  2
AcDbDictionaryWithDefault
  3
ObjectDBX Classes
 90
        0
280
     0
281
     0
  0
CLASS
  1
ACDBPLACEHOLDER
  2
AcDbPlaceHolder
  3
ObjectDBX Classes
 90
        0
280
     0
281
     0
  0
CLASS
  1
LAYOUT
  2
AcDbLayout
  3
ObjectDBX Classes
 90
        0
280
     0
281
     0
  0
CLASS
  1
DICTIONARYVAR
  2
AcDbDictionaryVar
  3
ObjectDBX Classes
 90
        0
280
     0
281
     0
  0
CLASS
  1
TABLESTYLE
  2
AcDbTableStyle
  3
ObjectDBX Classes
 90
     4095
280
     0
281
     0
  0
CLASS
  1
MATERIAL
  2
AcDbMaterial
  3
ObjectDBX Classes
 90
     1153
280
     0
281
     0
  0
CLASS
  1
VISUALSTYLE
  2
AcDbVisualStyle
  3
ObjectDBX Classes
 90
     4095
280
     0
281
     0
  0
CLASS
  1
SCALE
  2
AcDbScale
  3
ObjectDBX Classes
 90
     1153
280
     0
281
     0
  0
CLASS
  1
CELLSTYLEMAP
  2
AcDbCellStyleMap
  3
ObjectDBX Classes
 90
     1152
280
     0
281
     0
  0
CLASS
  1
RASTERVARIABLES
  2
AcDbRasterVariables
  3
ISM
 90
        0
280
     0
281
     0
  0
CLASS
  1
SUN
  2
AcDbSun
  3
SCENEOE
 90
     1153
280
     0
281
     0
  0
CLASS
  1
MLEADERSTYLE
  2
AcDbMLeaderStyle
  3
ACDB_MLEADERSTYLE_CLASS
 90
     4095
280
     0
281
     0
  0
CLASS
  1
XRECORD
  2
AcDbXrecord
  3
ObjectDBX Classes
 90
        0
280
     0
281
     0
  0
CLASS
  1
LWPOLYLINE
  2
AcDbPolyline
  3
ObjectDBX Classes
 90
        0
280
     0
281
     1
  0
CLASS
  1
HATCH
  2
AcDbHatch
  3
ObjectDBX Classes
 90
        0
280
     0
281
     1
  0
CLASS
  1
DIMASSOC
  2
AcDbDimAssoc
  3
"AcDbDimAssoc|Product Desc:     AcDim ARX App For Dimension|Company:          Autodesk, Inc.|WEB Address:      www.autodesk.com"
 90
        0
280
     0
281
     0
  0
ENDSEC
  0
SECTION
  2
TABLES
  0
TABLE
  2
VPORT
  5
8
330
0
100
AcDbSymbolTable
 70
     1
  0
VPORT
  5
94
330
8
100
AcDbSymbolTableRecord
100
AcDbViewportTableRecord
  2
*ACTIVE
 70
     0
 10
0.0
 20
0.0
 11
1.0
 21
1.0
 12
33.25185348861572
 22
18.10728466817745
 13
0.0
 23
0.0
 14
0.5
 24
0.7
 15
0.5
 25
0.7
 16
0.0
 26
0.0
 36
1.0
 17
-27.66959356597985
 27
-19.53870295786204
 37
0.0
 40
11.00571428571428
 41
2.033967391304348
 42
50.0
 43
0.0
 44
0.0
 50
0.0
 51
0.0
 71
    16
 72
  1000
 73
     1
 74
     3
 75
     0
 76
     1
 77
     0
 78
     0
  0
ENDTAB
  0
TABLE
  2
LTYPE
  5
5
330
0
100
AcDbSymbolTable
 70
     1
  0
LTYPE
  5
14
330
5
100
AcDbSymbolTableRecord
100
AcDbLinetypeTableRecord
  2
BYBLOCK
 70
     0
  3

 72
    65
 73
     0
 40
0.0
  0
LTYPE
  5
15
330
5
100
AcDbSymbolTableRecord
100
AcDbLinetypeTableRecord
  2
BYLAYER
 70
     0
  3

 72
    65
 73
     0
 40
0.0
  0
LTYPE
  5
16
330
5
100
AcDbSymbolTableRecord
100
AcDbLinetypeTableRecord
  2
CONTINUOUS
 70
     0
  3
Solid line
 72
    65
 73
     0
 40
0.0
  0
ENDTAB
  0
TABLE
  2
LAYER
  5
2
330
0
100
AcDbSymbolTable
 70
     2
  0
LAYER
  5
10
330
2
100
AcDbSymbolTableRecord
100
AcDbLayerTableRecord
  2
0
 70
     0
 62
     7
  6
CONTINUOUS
  0
LAYER
  5
131
330
2
100
AcDbSymbolTableRecord
100
AcDbLayerTableRecord
  2
DEFPOINTS
 70
     0
 62
     7
  6
CONTINUOUS
  0
ENDTAB
  0
TABLE
  2
STYLE
  5
3
330
0
100
AcDbSymbolTable
 70
     2
  0
STYLE
  5
11
330
3
100
AcDbSymbolTableRecord
100
AcDbTextStyleTableRecord
  2
STANDARD
 70
     0
 40
0.0
 41
1.0
 50
0.0
 71
     0
 42
0.2
  3
arial.ttf
  4

1001
ACAD
1000
Arial
1071
        0
  0
STYLE
  5
125
330
3
100
AcDbSymbolTableRecord
100
AcDbTextStyleTableRecord
  2
ANNOTATIVE
 70
     0
 40
0.0
 41
1.0
 50
0.0
 71
     0
 42
0.2
  3
arial.ttf
  4

1001
ACAD
1000
Arial
1071
        0
1001
ACADANNOTATIVE
1000
AnnotativeData
1002
{
1070
     1
1070
     1
1002
}
  0
ENDTAB
  0
TABLE
  2
VIEW
  5
6
330
0
100
AcDbSymbolTable
 70
     0
  0
ENDTAB
  0
TABLE
  2
UCS
  5
7
330
0
100
AcDbSymbolTable
 70
     0
  0
ENDTAB
  0
TABLE
  2
APPID
  5
9
330
0
100
AcDbSymbolTable
 70
     3
  0
APPID
  5
12
330
9
100
AcDbSymbolTableRecord
100
AcDbRegAppTableRecord
  2
ACAD
 70
     0
  0
APPID
  5
126
330
9
100
AcDbSymbolTableRecord
100
AcDbRegAppTableRecord
  2
ACADANNOTATIVE
 70
     0
  0
APPID
  5
330
330
9
100
AcDbSymbolTableRecord
100
AcDbRegAppTableRecord
  2
ACAD_DSTYLE_DIMRADIAL_EXTE
 70
     0
  0
ENDTAB
  0
TABLE
  2
DIMSTYLE
  5
A
330
0
100
AcDbSymbolTable
 70
     2
  0
DIMSTYLE
105
27
330
A
100
AcDbSymbolTableRecord
100
AcDbDimStyleTableRecord
  2
STANDARD
 70
     0
  3

  4

  5

  6

  7

 40
1.0
 41
0.18
 42
0.0625
 43
0.38
 44
0.18
 45
0.0
 46
0.0
 47
0.0
 48
0.0
140
0.18
141
0.09
142
0.0
143
25.4
144
1.0
145
0.0
146
1.0
147
0.09
 71
     0
 72
     0
 73
     1
 74
     1
 75
     0
 76
     0
 77
     0
 78
     0
170
     0
171
     2
172
     0
173
     0
174
     0
175
     0
176
     0
177
     0
178
     0
270
     2
271
     4
272
     4
273
     2
274
     2
340
11
275
     0
280
     0
281
     0
282
     0
283
     1
284
     0
285
     0
286
     0
287
     3
288
     0
  0
DIMSTYLE
105
127
330
A
100
AcDbSymbolTableRecord
100
AcDbDimStyleTableRecord
  2
ANNOTATIVE
 70
     0
  3

  4

  5

  6

  7

 40
0.0
 41
0.18
 42
0.0625
 43
0.38
 44
0.18
 45
0.0
 46
0.0
 47
0.0
 48
0.0
140
0.18
141
0.09
142
0.0
143
25.4
144
1.0
145
0.0
146
1.0
147
0.09
 71
     0
 72
     0
 73
     1
 74
     1
 75
     0
 76
     0
 77
     0
 78
     0
170
     0
171
     2
172
     0
173
     0
174
     0
175
     0
176
     0
177
     0
178
     0
270
     2
271
     4
272
     4
273
     2
274
     2
340
11
275
     0
280
     0
281
     0
282
     0
283
     1
284
     0
285
     0
286
     0
287
     3
288
     0
1001
ACADANNOTATIVE
1000
AnnotativeData
1002
{
1070
     1
1070
     1
1002
}
  0
ENDTAB
  0
TABLE
  2
BLOCK_RECORD
  5
1
330
0
100
AcDbSymbolTable
 70
    21
  0
BLOCK_RECORD
  5
1F
330
1
100
AcDbSymbolTableRecord
100
AcDbBlockTableRecord
  2
*MODEL_SPACE
  0
BLOCK_RECORD
  5
58
330
1
100
AcDbSymbolTableRecord
100
AcDbBlockTableRecord
  2
*PAPER_SPACE
  0
BLOCK_RECORD
  5
5D
330
1
100
AcDbSymbolTableRecord
100
AcDbBlockTableRecord
  2
*PAPER_SPACE0
  0
BLOCK_RECORD
  5
15A
330
1
100
AcDbSymbolTableRecord
100
AcDbBlockTableRecord
  2
*D1
  0
BLOCK_RECORD
  5
16A
330
1
100
AcDbSymbolTableRecord
100
AcDbBlockTableRecord
  2
*D2
  0
BLOCK_RECORD
  5
20E
330
1
100
AcDbSymbolTableRecord
100
AcDbBlockTableRecord
  2
*D3
  0
BLOCK_RECORD
  5
21E
330
1
100
AcDbSymbolTableRecord
100
AcDbBlockTableRecord
  2
*D4
  0
BLOCK_RECORD
  5
22E
330
1
100
AcDbSymbolTableRecord
100
AcDbBlockTableRecord
  2
*D5
  0
BLOCK_RECORD
  5
23E
330
1
100
AcDbSymbolTableRecord
100
AcDbBlockTableRecord
  2
*D6
  0
BLOCK_RECORD
  5
24E
330
1
100
AcDbSymbolTableRecord
100
AcDbBlockTableRecord
  2
*D7
  0
BLOCK_RECORD
  5
25E
330
1
100
AcDbSymbolTableRecord
100
AcDbBlockTableRecord
  2
*D8
  0
BLOCK_RECORD
  5
26E
330
1
100
AcDbSymbolTableRecord
100
AcDbBlockTableRecord
  2
*D9
  0
BLOCK_RECORD
  5
280
330
1
100
AcDbSymbolTableRecord
100
AcDbBlockTableRecord
  2
*D10
  0
BLOCK_RECORD
  5
292
330
1
100
AcDbSymbolTableRecord
100
AcDbBlockTableRecord
  2
*D11
  0
BLOCK_RECORD
  5
2A2
330
1
100
AcDbSymbolTableRecord
100
AcDbBlockTableRecord
  2
*D12
  0
BLOCK_RECORD
  5
2B2
330
1
100
AcDbSymbolTableRecord
100
AcDbBlockTableRecord
  2
*D13
  0
BLOCK_RECORD
  5
2C2
330
1
100
AcDbSymbolTableRecord
100
AcDbBlockTableRecord
  2
*D14
  0
BLOCK_RECORD
  5
2D2
330
1
100
AcDbSymbolTableRecord
100
AcDbBlockTableRecord
  2
*D15
  0
BLOCK_RECORD
  5
2E2
330
1
100
AcDbSymbolTableRecord
100
AcDbBlockTableRecord
  2
*D16
  0
BLOCK_RECORD
  5
2F2
330
1
100
AcDbSymbolTableRecord
100
AcDbBlockTableRecord
  2
*D17
  0
BLOCK_RECORD
  5
302
330
1
100
AcDbSymbolTableRecord
100
AcDbBlockTableRecord
  2
*D18
  0
BLOCK_RECORD
  5
312
330
1
100
AcDbSymbolTableRecord
100
AcDbBlockTableRecord
  2
*D19
  0
BLOCK_RECORD
  5
322
330
1
100
AcDbSymbolTableRecord
100
AcDbBlockTableRecord
  2
*D20
  0
ENDTAB
  0
ENDSEC
  0
SECTION
  2
BLOCKS
  0
BLOCK
  5
20
330
1F
100
AcDbEntity
  8
0
100
AcDbBlockBegin
  2
*MODEL_SPACE
 70
     0
 10
0.0
 20
0.0
 30
0.0
  3
*MODEL_SPACE
  1

  0
ENDBLK
  5
21
330
1F
100
AcDbEntity
  8
0
100
AcDbBlockEnd
  0
BLOCK
  5
5A
330
58
100
AcDbEntity
 67
     1
  8
0
100
AcDbBlockBegin
  2
*PAPER_SPACE
 70
     0
 10
0.0
 20
0.0
 30
0.0
  3
*PAPER_SPACE
  1

  0
ENDBLK
  5
5B
330
58
100
AcDbEntity
 67
     1
  8
0
100
AcDbBlockEnd
  0
BLOCK
  5
5F
330
5D
100
AcDbEntity
  8
0
100
AcDbBlockBegin
  2
*PAPER_SPACE0
 70
     0
 10
0.0
 20
0.0
 30
0.0
  3
*PAPER_SPACE0
  1

  0
ENDBLK
  5
60
330
5D
100
AcDbEntity
  8
0
100
AcDbBlockEnd
  0
BLOCK
  5
15B
330
15A
100
AcDbEntity
  8
0
100
AcDbBlockBegin
  2
*D1
 70
     1
 10
0.0
 20
0.0
 30
0.0
  3
*D1
  1

  0
LINE
  5
15D
330
15A
100
AcDbEntity
  8
0
 62
     0
100
AcDbLine
 10
0.11
 20
-1.0325
 30
0.0
 11
0.1100000000000003
 21
-3.049716813049771
 31
0.0
  0
LINE
  5
15E
330
15A
100
AcDbEntity
  8
0
 62
     0
100
AcDbLine
 10
5.71
 20
-1.0325
 30
0.0
 11
5.71
 21
-3.049716813049771
 31
0.0
  0
LINE
  5
15F
330
15A
100
AcDbEntity
  8
0
 62
     0
100
AcDbLine
 10
0.2900000000000003
 20
-2.869716813049771
 30
0.0
 11
2.44713
 21
-2.869716813049771
 31
0.0
  0
LINE
  5
160
330
15A
100
AcDbEntity
  8
0
 62
     0
100
AcDbLine
 10
5.53
 20
-2.869716813049771
 30
0.0
 11
3.372869999999999
 21
-2.869716813049771
 31
0.0
  0
SOLID
  5
161
330
15A
100
AcDbEntity
  8
0
 62
     0
100
AcDbTrace
 10
0.2900000000000003
 20
-2.839716813049771
 30
0.0
 11
0.2900000000000003
 21
-2.899716813049771
 31
0.0
 12
0.1100000000000003
 22
-2.869716813049771
 32
0.0
 13
0.1100000000000003
 23
-2.869716813049771
 33
0.0
  0
SOLID
  5
162
330
15A
100
AcDbEntity
  8
0
 62
     0
100
AcDbTrace
 10
5.53
 20
-2.899716813049771
 30
0.0
 11
5.53
 21
-2.839716813049771
 31
0.0
 12
5.71
 22
-2.869716813049771
 32
0.0
 13
5.71
 23
-2.869716813049771
 33
0.0
  0
MTEXT
  5
163
330
15A
100
AcDbEntity
  8
0
 62
     0
100
AcDbMText
 10
2.91
 20
-2.869716813049771
 30
0.0
 40
0.18
 41
0.0
 71
     5
 72
     1
  1
\A1;5.6000
  0
POINT
  5
164
330
15A
100
AcDbEntity
  8
DEFPOINTS
 62
     0
100
AcDbPoint
 10
0.11
 20
-0.97
 30
0.0
  0
POINT
  5
165
330
15A
100
AcDbEntity
  8
DEFPOINTS
 62
     0
100
AcDbPoint
 10
5.71
 20
-0.97
 30
0.0
  0
POINT
  5
166
330
15A
100
AcDbEntity
  8
DEFPOINTS
 62
     0
100
AcDbPoint
 10
5.71
 20
-2.869716813049771
 30
0.0
  0
ENDBLK
  5
15C
330
15A
100
AcDbEntity
  8
0
100
AcDbBlockEnd
  0
BLOCK
  5
16B
330
16A
100
AcDbEntity
  8
0
100
AcDbBlockBegin
  2
*D2
 70
     1
 10
0.0
 20
0.0
 30
0.0
  3
*D2
  1

  0
LINE
  5
16D
330
16A
100
AcDbEntity
  8
0
 62
     0
100
AcDbLine
 10
1.71
 20
-1.0325
 30
0.0
 11
1.71
 21
-2.676479545969026
 31
0.0
  0
LINE
  5
16E
330
16A
100
AcDbEntity
  8
0
 62
     0
100
AcDbLine
 10
4.109999999999999
 20
-1.0325
 30
0.0
 11
4.109999999999999
 21
-2.676479545969026
 31
0.0
  0
LINE
  5
16F
330
16A
100
AcDbEntity
  8
0
 62
     0
100
AcDbLine
 10
1.89
 20
-2.496479545969025
 30
0.0
 11
2.4456
 21
-2.496479545969025
 31
0.0
  0
LINE
  5
170
330
16A
100
AcDbEntity
  8
0
 62
     0
100
AcDbLine
 10
3.929999999999999
 20
-2.496479545969025
 30
0.0
 11
3.3744
 21
-2.496479545969025
 31
0.0
  0
SOLID
  5
171
330
16A
100
AcDbEntity
  8
0
 62
     0
100
AcDbTrace
 10
1.89
 20
-2.466479545969026
 30
0.0
 11
1.89
 21
-2.526479545969025
 31
0.0
 12
1.71
 22
-2.496479545969025
 32
0.0
 13
1.71
 23
-2.496479545969025
 33
0.0
  0
SOLID
  5
172
330
16A
100
AcDbEntity
  8
0
 62
     0
100
AcDbTrace
 10
3.929999999999999
 20
-2.526479545969025
 30
0.0
 11
3.929999999999999
 21
-2.466479545969026
 31
0.0
 12
4.109999999999999
 22
-2.496479545969025
 32
0.0
 13
4.109999999999999
 23
-2.496479545969025
 33
0.0
  0
MTEXT
  5
173
330
16A
100
AcDbEntity
  8
0
 62
     0
100
AcDbMText
 10
2.91
 20
-2.496479545969025
 30
0.0
 40
0.18
 41
0.0
 71
     5
 72
     1
  1
\A1;2.4000
  0
POINT
  5
174
330
16A
100
AcDbEntity
  8
DEFPOINTS
 62
     0
100
AcDbPoint
 10
1.71
 20
-0.97
 30
0.0
  0
POINT
  5
175
330
16A
100
AcDbEntity
  8
DEFPOINTS
 62
     0
100
AcDbPoint
 10
4.109999999999999
 20
-0.97
 30
0.0
  0
POINT
  5
176
330
16A
100
AcDbEntity
  8
DEFPOINTS
 62
     0
100
AcDbPoint
 10
4.109999999999999
 20
-2.496479545969025
 30
0.0
  0
ENDBLK
  5
16C
330
16A
100
AcDbEntity
  8
0
100
AcDbBlockEnd
  0
BLOCK
  5
20F
330
20E
100
AcDbEntity
  8
0
100
AcDbBlockBegin
  2
*D3
 70
     1
 10
0.0
 20
0.0
 30
0.0
  3
*D3
  1

  0
LINE
  5
211
330
20E
100
AcDbEntity
  8
0
 62
     0
100
AcDbLine
 10
-1.42
 20
-1.2475
 30
0.0
 11
-1.42
 21
6.39045007705531
 31
0.0
  0
LINE
  5
212
330
20E
100
AcDbEntity
  8
0
 62
     0
100
AcDbLine
 10
7.239999999999998
 20
-1.247500000000005
 30
0.0
 11
7.239999999999998
 21
6.39045007705531
 31
0.0
  0
LINE
  5
213
330
20E
100
AcDbEntity
  8
0
 62
     0
100
AcDbLine
 10
-1.24
 20
6.21045007705531
 30
0.0
 11
2.447039999999999
 21
6.21045007705531
 31
0.0
  0
LINE
  5
214
330
20E
100
AcDbEntity
  8
0
 62
     0
100
AcDbLine
 10
7.059999999999999
 20
6.21045007705531
 30
0.0
 11
3.372959999999999
 21
6.21045007705531
 31
0.0
  0
SOLID
  5
215
330
20E
100
AcDbEntity
  8
0
 62
     0
100
AcDbTrace
 10
-1.24
 20
6.240450077055311
 30
0.0
 11
-1.24
 21
6.18045007705531
 31
0.0
 12
-1.42
 22
6.21045007705531
 32
0.0
 13
-1.42
 23
6.21045007705531
 33
0.0
  0
SOLID
  5
216
330
20E
100
AcDbEntity
  8
0
 62
     0
100
AcDbTrace
 10
7.059999999999999
 20
6.18045007705531
 30
0.0
 11
7.059999999999999
 21
6.240450077055311
 31
0.0
 12
7.239999999999998
 22
6.21045007705531
 32
0.0
 13
7.239999999999998
 23
6.21045007705531
 33
0.0
  0
MTEXT
  5
217
330
20E
100
AcDbEntity
  8
0
 62
     0
100
AcDbMText
 10
2.909999999999999
 20
6.21045007705531
 30
0.0
 40
0.18
 41
0.0
 71
     5
 72
     1
  1
\A1;8.6600
  0
POINT
  5
218
330
20E
100
AcDbEntity
  8
DEFPOINTS
 62
     0
100
AcDbPoint
 10
-1.42
 20
-1.31
 30
0.0
  0
POINT
  5
219
330
20E
100
AcDbEntity
  8
DEFPOINTS
 62
     0
100
AcDbPoint
 10
7.239999999999998
 20
-1.310000000000005
 30
0.0
  0
POINT
  5
21A
330
20E
100
AcDbEntity
  8
DEFPOINTS
 62
     0
100
AcDbPoint
 10
7.239999999999998
 20
6.21045007705531
 30
0.0
  0
ENDBLK
  5
210
330
20E
100
AcDbEntity
  8
0
100
AcDbBlockEnd
  0
BLOCK
  5
21F
330
21E
100
AcDbEntity
  8
0
100
AcDbBlockBegin
  2
*D4
 70
     1
 10
0.0
 20
0.0
 30
0.0
  3
*D4
  1

  0
LINE
  5
221
330
21E
100
AcDbEntity
  8
0
 62
     0
100
AcDbLine
 10
-0.77
 20
-1.2475
 30
0.0
 11
-0.7700000000000005
 21
5.953802848794441
 31
0.0
  0
LINE
  5
222
330
21E
100
AcDbEntity
  8
0
 62
     0
100
AcDbLine
 10
6.589999999999999
 20
-1.247500000000004
 30
0.0
 11
6.589999999999999
 21
5.953802848794441
 31
0.0
  0
LINE
  5
223
330
21E
100
AcDbEntity
  8
0
 62
     0
100
AcDbLine
 10
-0.5900000000000005
 20
5.773802848794441
 30
0.0
 11
2.447849999999999
 21
5.773802848794441
 31
0.0
  0
LINE
  5
224
330
21E
100
AcDbEntity
  8
0
 62
     0
100
AcDbLine
 10
6.409999999999999
 20
5.773802848794441
 30
0.0
 11
3.372149999999999
 21
5.773802848794441
 31
0.0
  0
SOLID
  5
225
330
21E
100
AcDbEntity
  8
0
 62
     0
100
AcDbTrace
 10
-0.5900000000000005
 20
5.803802848794441
 30
0.0
 11
-0.5900000000000005
 21
5.743802848794441
 31
0.0
 12
-0.7700000000000005
 22
5.773802848794441
 32
0.0
 13
-0.7700000000000005
 23
5.773802848794441
 33
0.0
  0
SOLID
  5
226
330
21E
100
AcDbEntity
  8
0
 62
     0
100
AcDbTrace
 10
6.409999999999999
 20
5.743802848794441
 30
0.0
 11
6.409999999999999
 21
5.803802848794441
 31
0.0
 12
6.589999999999999
 22
5.773802848794441
 32
0.0
 13
6.589999999999999
 23
5.773802848794441
 33
0.0
  0
MTEXT
  5
227
330
21E
100
AcDbEntity
  8
0
 62
     0
100
AcDbMText
 10
2.909999999999999
 20
5.773802848794441
 30
0.0
 40
0.18
 41
0.0
 71
     5
 72
     1
  1
\A1;7.3600
  0
POINT
  5
228
330
21E
100
AcDbEntity
  8
DEFPOINTS
 62
     0
100
AcDbPoint
 10
-0.77
 20
-1.31
 30
0.0
  0
POINT
  5
229
330
21E
100
AcDbEntity
  8
DEFPOINTS
 62
     0
100
AcDbPoint
 10
6.589999999999999
 20
-1.310000000000004
 30
0.0
  0
POINT
  5
22A
330
21E
100
AcDbEntity
  8
DEFPOINTS
 62
     0
100
AcDbPoint
 10
6.589999999999999
 20
5.773802848794441
 30
0.0
  0
ENDBLK
  5
220
330
21E
100
AcDbEntity
  8
0
100
AcDbBlockEnd
  0
BLOCK
  5
22F
330
22E
100
AcDbEntity
  8
0
100
AcDbBlockBegin
  2
*D5
 70
     1
 10
0.0
 20
0.0
 30
0.0
  3
*D5
  1

  0
LINE
  5
231
330
22E
100
AcDbEntity
  8
0
 62
     0
100
AcDbLine
 10
-0.69
 20
-0.2475
 30
0.0
 11
-0.6899999999999995
 21
5.367628935750963
 31
0.0
  0
LINE
  5
232
330
22E
100
AcDbEntity
  8
0
 62
     0
100
AcDbLine
 10
6.52
 20
0.1775
 30
0.0
 11
6.52
 21
5.367628935750963
 31
0.0
  0
LINE
  5
233
330
22E
100
AcDbEntity
  8
0
 62
     0
100
AcDbLine
 10
-0.5099999999999996
 20
5.187628935750963
 30
0.0
 11
2.452850000000001
 21
5.187628935750963
 31
0.0
  0
LINE
  5
234
330
22E
100
AcDbEntity
  8
0
 62
     0
100
AcDbLine
 10
6.34
 20
5.187628935750963
 30
0.0
 11
3.37715
 21
5.187628935750963
 31
0.0
  0
SOLID
  5
235
330
22E
100
AcDbEntity
  8
0
 62
     0
100
AcDbTrace
 10
-0.5099999999999996
 20
5.217628935750963
 30
0.0
 11
-0.5099999999999996
 21
5.157628935750963
 31
0.0
 12
-0.6899999999999995
 22
5.187628935750963
 32
0.0
 13
-0.6899999999999995
 23
5.187628935750963
 33
0.0
  0
SOLID
  5
236
330
22E
100
AcDbEntity
  8
0
 62
     0
100
AcDbTrace
 10
6.34
 20
5.157628935750963
 30
0.0
 11
6.34
 21
5.217628935750963
 31
0.0
 12
6.52
 22
5.187628935750963
 32
0.0
 13
6.52
 23
5.187628935750963
 33
0.0
  0
MTEXT
  5
237
330
22E
100
AcDbEntity
  8
0
 62
     0
100
AcDbMText
 10
2.915
 20
5.187628935750963
 30
0.0
 40
0.18
 41
0.0
 71
     5
 72
     1
  1
\A1;7.2100
  0
POINT
  5
238
330
22E
100
AcDbEntity
  8
DEFPOINTS
 62
     0
100
AcDbPoint
 10
-0.69
 20
-0.31
 30
0.0
  0
POINT
  5
239
330
22E
100
AcDbEntity
  8
DEFPOINTS
 62
     0
100
AcDbPoint
 10
6.52
 20
0.115
 30
0.0
  0
POINT
  5
23A
330
22E
100
AcDbEntity
  8
DEFPOINTS
 62
     0
100
AcDbPoint
 10
6.52
 20
5.187628935750963
 30
0.0
  0
ENDBLK
  5
230
330
22E
100
AcDbEntity
  8
0
100
AcDbBlockEnd
  0
BLOCK
  5
23F
330
23E
100
AcDbEntity
  8
0
100
AcDbBlockBegin
  2
*D6
 70
     1
 10
0.0
 20
0.0
 30
0.0
  3
*D6
  1

  0
LINE
  5
241
330
23E
100
AcDbEntity
  8
0
 62
     0
100
AcDbLine
 10
0.1600000000000001
 20
0.7624999999999998
 30
0.0
 11
0.1600000000000001
 21
4.380351690797553
 31
0.0
  0
LINE
  5
242
330
23E
100
AcDbEntity
  8
0
 62
     0
100
AcDbLine
 10
5.66
 20
0.7625000000000012
 30
0.0
 11
5.66
 21
4.380351690797553
 31
0.0
  0
LINE
  5
243
330
23E
100
AcDbEntity
  8
0
 62
     0
100
AcDbLine
 10
0.3400000000000001
 20
4.200351690797554
 30
0.0
 11
2.44713
 21
4.200351690797554
 31
0.0
  0
LINE
  5
244
330
23E
100
AcDbEntity
  8
0
 62
     0
100
AcDbLine
 10
5.48
 20
4.200351690797554
 30
0.0
 11
3.372869999999999
 21
4.200351690797554
 31
0.0
  0
SOLID
  5
245
330
23E
100
AcDbEntity
  8
0
 62
     0
100
AcDbTrace
 10
0.3400000000000001
 20
4.230351690797554
 30
0.0
 11
0.3400000000000001
 21
4.170351690797554
 31
0.0
 12
0.1600000000000001
 22
4.200351690797554
 32
0.0
 13
0.1600000000000001
 23
4.200351690797554
 33
0.0
  0
SOLID
  5
246
330
23E
100
AcDbEntity
  8
0
 62
     0
100
AcDbTrace
 10
5.48
 20
4.170351690797554
 30
0.0
 11
5.48
 21
4.230351690797554
 31
0.0
 12
5.66
 22
4.200351690797554
 32
0.0
 13
5.66
 23
4.200351690797554
 33
0.0
  0
MTEXT
  5
247
330
23E
100
AcDbEntity
  8
0
 62
     0
100
AcDbMText
 10
2.91
 20
4.200351690797554
 30
0.0
 40
0.18
 41
0.0
 71
     5
 72
     1
  1
\A1;5.5000
  0
POINT
  5
248
330
23E
100
AcDbEntity
  8
DEFPOINTS
 62
     0
100
AcDbPoint
 10
0.1600000000000001
 20
0.6999999999999998
 30
0.0
  0
POINT
  5
249
330
23E
100
AcDbEntity
  8
DEFPOINTS
 62
     0
100
AcDbPoint
 10
5.66
 20
0.7000000000000012
 30
0.0
  0
POINT
  5
24A
330
23E
100
AcDbEntity
  8
DEFPOINTS
 62
     0
100
AcDbPoint
 10
5.66
 20
4.200351690797554
 30
0.0
  0
ENDBLK
  5
240
330
23E
100
AcDbEntity
  8
0
100
AcDbBlockEnd
  0
BLOCK
  5
24F
330
24E
100
AcDbEntity
  8
0
100
AcDbBlockBegin
  2
*D7
 70
     1
 10
0.0
 20
0.0
 30
0.0
  3
*D7
  1

  0
LINE
  5
251
330
24E
100
AcDbEntity
  8
0
 62
     0
100
AcDbLine
 10
0.0
 20
0.7624999999999998
 30
0.0
 11
0.0
 21
1.494342374027368
 31
0.0
  0
LINE
  5
252
330
24E
100
AcDbEntity
  8
0
 62
     0
100
AcDbLine
 10
0.3200000000000001
 20
0.7624999999999998
 30
0.0
 11
0.3200000000000001
 21
1.494342374027368
 31
0.0
  0
LINE
  5
253
330
24E
100
AcDbEntity
  8
0
 62
     0
100
AcDbLine
 10
0.0
 20
1.314342374027368
 30
0.0
 11
0.6800000000000002
 21
1.314342374027368
 31
0.0
  0
LINE
  5
254
330
24E
100
AcDbEntity
  8
0
 62
     0
100
AcDbLine
 10
-0.18
 20
1.314342374027368
 30
0.0
 11
-0.36
 21
1.314342374027368
 31
0.0
  0
SOLID
  5
255
330
24E
100
AcDbEntity
  8
0
 62
     0
100
AcDbTrace
 10
-0.18
 20
1.284342374027368
 30
0.0
 11
-0.18
 21
1.344342374027368
 31
0.0
 12
0.0
 22
1.314342374027368
 32
0.0
 13
0.0
 23
1.314342374027368
 33
0.0
  0
SOLID
  5
256
330
24E
100
AcDbEntity
  8
0
 62
     0
100
AcDbTrace
 10
0.5000000000000001
 20
1.344342374027368
 30
0.0
 11
0.5000000000000001
 21
1.284342374027368
 31
0.0
 12
0.3200000000000001
 22
1.314342374027368
 32
0.0
 13
0.3200000000000001
 23
1.314342374027368
 33
0.0
  0
MTEXT
  5
257
330
24E
100
AcDbEntity
  8
0
 62
     0
100
AcDbMText
 10
1.14287
 20
1.314342374027368
 30
0.0
 40
0.18
 41
0.0
 71
     5
 72
     1
  1
\A1;0.3200
  0
POINT
  5
258
330
24E
100
AcDbEntity
  8
DEFPOINTS
 62
     0
100
AcDbPoint
 10
0.0
 20
0.6999999999999998
 30
0.0
  0
POINT
  5
259
330
24E
100
AcDbEntity
  8
DEFPOINTS
 62
     0
100
AcDbPoint
 10
0.3200000000000001
 20
0.6999999999999998
 30
0.0
  0
POINT
  5
25A
330
24E
100
AcDbEntity
  8
DEFPOINTS
 62
     0
100
AcDbPoint
 10
0.3200000000000001
 20
1.314342374027368
 30
0.0
  0
ENDBLK
  5
250
330
24E
100
AcDbEntity
  8
0
100
AcDbBlockEnd
  0
BLOCK
  5
25F
330
25E
100
AcDbEntity
  8
0
100
AcDbBlockBegin
  2
*D8
 70
     1
 10
0.0
 20
0.0
 30
0.0
  3
*D8
  1

  0
LINE
  5
261
330
25E
100
AcDbEntity
  8
0
 62
     0
100
AcDbLine
 10
5.945
 20
-0.2474999999999999
 30
0.0
 11
5.945
 21
1.012094703219913
 31
0.0
  0
LINE
  5
262
330
25E
100
AcDbEntity
  8
0
 62
     0
100
AcDbLine
 10
7.095
 20
-0.2475000000000001
 30
0.0
 11
7.095
 21
1.012094703219913
 31
0.0
  0
LINE
  5
263
330
25E
100
AcDbEntity
  8
0
 62
     0
100
AcDbLine
 10
5.765000000000001
 20
0.8320947032199131
 30
0.0
 11
5.585000000000001
 21
0.8320947032199131
 31
0.0
  0
LINE
  5
264
330
25E
100
AcDbEntity
  8
0
 62
     0
100
AcDbLine
 10
7.274999999999999
 20
0.8320947032199131
 30
0.0
 11
7.454999999999999
 21
0.8320947032199131
 31
0.0
  0
SOLID
  5
265
330
25E
100
AcDbEntity
  8
0
 62
     0
100
AcDbTrace
 10
5.765000000000001
 20
0.802094703219913
 30
0.0
 11
5.765000000000001
 21
0.8620947032199131
 31
0.0
 12
5.945
 22
0.8320947032199131
 32
0.0
 13
5.945
 23
0.8320947032199131
 33
0.0
  0
SOLID
  5
266
330
25E
100
AcDbEntity
  8
0
 62
     0
100
AcDbTrace
 10
7.274999999999999
 20
0.8620947032199131
 30
0.0
 11
7.274999999999999
 21
0.802094703219913
 31
0.0
 12
7.095
 22
0.8320947032199131
 32
0.0
 13
7.095
 23
0.8320947032199131
 33
0.0
  0
MTEXT
  5
267
330
25E
100
AcDbEntity
  8
0
 62
     0
100
AcDbMText
 10
6.52
 20
0.8320947032199131
 30
0.0
 40
0.18
 41
0.0
 71
     5
 72
     1
  1
\A1;1.1500
  0
POINT
  5
268
330
25E
100
AcDbEntity
  8
DEFPOINTS
 62
     0
100
AcDbPoint
 10
5.945
 20
-0.3099999999999999
 30
0.0
  0
POINT
  5
269
330
25E
100
AcDbEntity
  8
DEFPOINTS
 62
     0
100
AcDbPoint
 10
7.095
 20
-0.3100000000000001
 30
0.0
  0
POINT
  5
26A
330
25E
100
AcDbEntity
  8
DEFPOINTS
 62
     0
100
AcDbPoint
 10
7.095
 20
0.8320947032199131
 30
0.0
  0
ENDBLK
  5
260
330
25E
100
AcDbEntity
  8
0
100
AcDbBlockEnd
  0
BLOCK
  5
26F
330
26E
100
AcDbEntity
  8
0
100
AcDbBlockBegin
  2
*D9
 70
     1
 10
0.0
 20
0.0
 30
0.0
  3
*D9
  1

  0
LINE
  5
271
330
26E
100
AcDbEntity
  8
0
 62
     0
100
AcDbLine
 10
5.8825
 20
0.3500000000000013
 30
0.0
 11
9.191577291208057
 21
0.350000000000001
 31
0.0
  0
LINE
  5
272
330
26E
100
AcDbEntity
  8
0
 62
     0
100
AcDbLine
 10
7.1575
 20
-0.3100000000000001
 30
0.0
 11
9.191577291208057
 21
-0.3100000000000002
 31
0.0
  0
LINE
  5
273
330
26E
100
AcDbEntity
  8
0
 62
     0
100
AcDbLine
 10
9.011577291208058
 20
-0.4900000000000002
 30
0.0
 11
8.831577291208058
 21
-0.4900000000000002
 31
0.0
  0
LINE
  5
274
330
26E
100
AcDbEntity
  8
0
 62
     0
100
AcDbLine
 10
9.011577291208058
 20
0.170000000000001
 30
0.0
 11
9.011577291208058
 21
-0.1300000000000002
 31
0.0
  0
LINE
  5
275
330
26E
100
AcDbEntity
  8
0
 62
     0
100
AcDbLine
 10
9.011577291208058
 20
-0.1300000000000002
 30
0.0
 11
9.011577291208058
 21
0.170000000000001
 31
0.0
  0
LINE
  5
276
330
26E
100
AcDbEntity
  8
0
 62
     0
100
AcDbLine
 10
9.011577291208058
 20
-0.3100000000000002
 30
0.0
 11
9.011577291208058
 21
-0.4900000000000002
 31
0.0
  0
SOLID
  5
277
330
26E
100
AcDbEntity
  8
0
 62
     0
100
AcDbTrace
 10
9.041577291208057
 20
0.170000000000001
 30
0.0
 11
8.981577291208058
 21
0.170000000000001
 31
0.0
 12
9.011577291208058
 22
0.350000000000001
 32
0.0
 13
9.011577291208058
 23
0.350000000000001
 33
0.0
  0
SOLID
  5
278
330
26E
100
AcDbEntity
  8
0
 62
     0
100
AcDbTrace
 10
8.981577291208058
 20
-0.1300000000000002
 30
0.0
 11
9.041577291208057
 21
-0.1300000000000002
 31
0.0
 12
9.011577291208058
 22
-0.3100000000000002
 32
0.0
 13
9.011577291208058
 23
-0.3100000000000002
 33
0.0
  0
MTEXT
  5
279
330
26E
100
AcDbEntity
  8
0
 62
     0
100
AcDbMText
 10
8.368707291208057
 20
-0.4900000000000002
 30
0.0
 40
0.18
 41
0.0
 71
     5
 72
     1
  1
\A1;0.6600
  0
POINT
  5
27A
330
26E
100
AcDbEntity
  8
DEFPOINTS
 62
     0
100
AcDbPoint
 10
5.82
 20
0.3500000000000013
 30
0.0
  0
POINT
  5
27B
330
26E
100
AcDbEntity
  8
DEFPOINTS
 62
     0
100
AcDbPoint
 10
7.095
 20
-0.3100000000000001
 30
0.0
  0
POINT
  5
27C
330
26E
100
AcDbEntity
  8
DEFPOINTS
 62
     0
100
AcDbPoint
 10
9.011577291208058
 20
-0.3100000000000002
 30
0.0
  0
ENDBLK
  5
270
330
26E
100
AcDbEntity
  8
0
100
AcDbBlockEnd
  0
BLOCK
  5
281
330
280
100
AcDbEntity
  8
0
100
AcDbBlockBegin
  2
*D10
 70
     1
 10
0.0
 20
0.0
 30
0.0
  3
*D10
  1

  0
LINE
  5
283
330
280
100
AcDbEntity
  8
0
 62
     0
100
AcDbLine
 10
6.5825
 20
0.115
 30
0.0
 11
10.08902151481055
 21
0.1149999999999998
 31
0.0
  0
LINE
  5
284
330
280
100
AcDbEntity
  8
0
 62
     0
100
AcDbLine
 10
6.5825
 20
-0.7350000000000001
 30
0.0
 11
10.08902151481055
 21
-0.7350000000000003
 31
0.0
  0
LINE
  5
285
330
280
100
AcDbEntity
  8
0
 62
     0
100
AcDbLine
 10
9.909021514810547
 20
-0.9150000000000003
 30
0.0
 11
9.729021514810547
 21
-0.9150000000000003
 31
0.0
  0
LINE
  5
286
330
280
100
AcDbEntity
  8
0
 62
     0
100
AcDbLine
 10
9.909021514810547
 20
-0.0650000000000002
 30
0.0
 11
9.909021514810547
 21
-0.5550000000000004
 31
0.0
  0
LINE
  5
287
330
280
100
AcDbEntity
  8
0
 62
     0
100
AcDbLine
 10
9.909021514810547
 20
-0.5550000000000004
 30
0.0
 11
9.909021514810547
 21
-0.0650000000000002
 31
0.0
  0
LINE
  5
288
330
280
100
AcDbEntity
  8
0
 62
     0
100
AcDbLine
 10
9.909021514810547
 20
-0.7350000000000003
 30
0.0
 11
9.909021514810547
 21
-0.9150000000000003
 31
0.0
  0
SOLID
  5
289
330
280
100
AcDbEntity
  8
0
 62
     0
100
AcDbTrace
 10
9.939021514810547
 20
-0.0650000000000002
 30
0.0
 11
9.879021514810548
 21
-0.0650000000000002
 31
0.0
 12
9.909021514810547
 22
0.1149999999999998
 32
0.0
 13
9.909021514810547
 23
0.1149999999999998
 33
0.0
  0
SOLID
  5
28A
330
280
100
AcDbEntity
  8
0
 62
     0
100
AcDbTrace
 10
9.879021514810548
 20
-0.5550000000000004
 30
0.0
 11
9.939021514810547
 21
-0.5550000000000004
 31
0.0
 12
9.909021514810547
 22
-0.7350000000000003
 32
0.0
 13
9.909021514810547
 23
-0.7350000000000003
 33
0.0
  0
MTEXT
  5
28B
330
280
100
AcDbEntity
  8
0
 62
     0
100
AcDbMText
 10
9.266151514810547
 20
-0.9150000000000003
 30
0.0
 40
0.18
 41
0.0
 71
     5
 72
     1
  1
\A1;0.8500
  0
POINT
  5
28C
330
280
100
AcDbEntity
  8
DEFPOINTS
 62
     0
100
AcDbPoint
 10
6.52
 20
0.115
 30
0.0
  0
POINT
  5
28D
330
280
100
AcDbEntity
  8
DEFPOINTS
 62
     0
100
AcDbPoint
 10
6.52
 20
-0.7350000000000001
 30
0.0
  0
POINT
  5
28E
330
280
100
AcDbEntity
  8
DEFPOINTS
 62
     0
100
AcDbPoint
 10
9.909021514810547
 20
-0.7350000000000003
 30
0.0
  0
ENDBLK
  5
282
330
280
100
AcDbEntity
  8
0
100
AcDbBlockEnd
  0
BLOCK
  5
293
330
292
100
AcDbEntity
  8
0
100
AcDbBlockBegin
  2
*D11
 70
     1
 10
0.0
 20
0.0
 30
0.0
  3
*D11
  1

  0
LINE
  5
295
330
292
100
AcDbEntity
  8
0
 62
     0
100
AcDbLine
 10
6.527499999999999
 20
-1.310000000000004
 30
0.0
 11
4.908997166984461
 21
-1.310000000000004
 31
0.0
  0
LINE
  5
296
330
292
100
AcDbEntity
  8
0
 62
     0
100
AcDbLine
 10
6.6075
 20
-0.31
 30
0.0
 11
4.908997166984461
 21
-0.3099999999999999
 31
0.0
  0
LINE
  5
297
330
292
100
AcDbEntity
  8
0
 62
     0
100
AcDbLine
 10
5.088997166984461
 20
-1.130000000000004
 30
0.0
 11
5.088997166984461
 21
-0.9918900000000019
 31
0.0
  0
LINE
  5
298
330
292
100
AcDbEntity
  8
0
 62
     0
100
AcDbLine
 10
5.088997166984461
 20
-0.4899999999999999
 30
0.0
 11
5.088997166984461
 21
-0.628110000000002
 31
0.0
  0
SOLID
  5
299
330
292
100
AcDbEntity
  8
0
 62
     0
100
AcDbTrace
 10
5.058997166984461
 20
-1.130000000000004
 30
0.0
 11
5.118997166984461
 21
-1.130000000000004
 31
0.0
 12
5.088997166984461
 22
-1.310000000000004
 32
0.0
 13
5.088997166984461
 23
-1.310000000000004
 33
0.0
  0
SOLID
  5
29A
330
292
100
AcDbEntity
  8
0
 62
     0
100
AcDbTrace
 10
5.118997166984461
 20
-0.4899999999999999
 30
0.0
 11
5.058997166984461
 21
-0.4899999999999999
 31
0.0
 12
5.088997166984461
 22
-0.3099999999999999
 32
0.0
 13
5.088997166984461
 23
-0.3099999999999999
 33
0.0
  0
MTEXT
  5
29B
330
292
100
AcDbEntity
  8
0
 62
     0
100
AcDbMText
 10
5.088997166984461
 20
-0.8100000000000019
 30
0.0
 40
0.18
 41
0.0
 71
     5
 72
     1
  1
\A1;1.0000
  0
POINT
  5
29C
330
292
100
AcDbEntity
  8
DEFPOINTS
 62
     0
100
AcDbPoint
 10
6.589999999999999
 20
-1.310000000000004
 30
0.0
  0
POINT
  5
29D
330
292
100
AcDbEntity
  8
DEFPOINTS
 62
     0
100
AcDbPoint
 10
6.67
 20
-0.31
 30
0.0
  0
POINT
  5
29E
330
292
100
AcDbEntity
  8
DEFPOINTS
 62
     0
100
AcDbPoint
 10
5.088997166984461
 20
-0.3099999999999999
 30
0.0
  0
ENDBLK
  5
294
330
292
100
AcDbEntity
  8
0
100
AcDbBlockEnd
  0
BLOCK
  5
2A3
330
2A2
100
AcDbEntity
  8
0
100
AcDbBlockBegin
  2
*D12
 70
     1
 10
0.0
 20
0.0
 30
0.0
  3
*D12
  1

  0
LINE
  5
2A5
330
2A2
100
AcDbEntity
  8
0
 62
     0
100
AcDbLine
 10
7.302499999999999
 20
-1.010000000000005
 30
0.0
 11
8.302746235307442
 21
-1.010000000000005
 31
0.0
  0
LINE
  5
2A6
330
2A2
100
AcDbEntity
  8
0
 62
     0
100
AcDbLine
 10
7.302499999999998
 20
-2.110000000000005
 30
0.0
 11
8.302746235307442
 21
-2.110000000000005
 31
0.0
  0
LINE
  5
2A7
330
2A2
100
AcDbEntity
  8
0
 62
     0
100
AcDbLine
 10
8.122746235307442
 20
-1.190000000000005
 30
0.0
 11
8.122746235307442
 21
-1.378110000000005
 31
0.0
  0
LINE
  5
2A8
330
2A2
100
AcDbEntity
  8
0
 62
     0
100
AcDbLine
 10
8.122746235307442
 20
-1.930000000000005
 30
0.0
 11
8.122746235307442
 21
-1.741890000000005
 31
0.0
  0
SOLID
  5
2A9
330
2A2
100
AcDbEntity
  8
0
 62
     0
100
AcDbTrace
 10
8.152746235307442
 20
-1.190000000000005
 30
0.0
 11
8.092746235307443
 21
-1.190000000000005
 31
0.0
 12
8.122746235307442
 22
-1.010000000000005
 32
0.0
 13
8.122746235307442
 23
-1.010000000000005
 33
0.0
  0
SOLID
  5
2AA
330
2A2
100
AcDbEntity
  8
0
 62
     0
100
AcDbTrace
 10
8.092746235307443
 20
-1.930000000000005
 30
0.0
 11
8.152746235307442
 21
-1.930000000000005
 31
0.0
 12
8.122746235307442
 22
-2.110000000000005
 32
0.0
 13
8.122746235307442
 23
-2.110000000000005
 33
0.0
  0
MTEXT
  5
2AB
330
2A2
100
AcDbEntity
  8
0
 62
     0
100
AcDbMText
 10
8.122746235307442
 20
-1.560000000000005
 30
0.0
 40
0.18
 41
0.0
 71
     5
 72
     1
  1
\A1;1.1000
  0
POINT
  5
2AC
330
2A2
100
AcDbEntity
  8
DEFPOINTS
 62
     0
100
AcDbPoint
 10
7.239999999999999
 20
-1.010000000000005
 30
0.0
  0
POINT
  5
2AD
330
2A2
100
AcDbEntity
  8
DEFPOINTS
 62
     0
100
AcDbPoint
 10
7.239999999999998
 20
-2.110000000000005
 30
0.0
  0
POINT
  5
2AE
330
2A2
100
AcDbEntity
  8
DEFPOINTS
 62
     0
100
AcDbPoint
 10
8.122746235307442
 20
-2.110000000000005
 30
0.0
  0
ENDBLK
  5
2A4
330
2A2
100
AcDbEntity
  8
0
100
AcDbBlockEnd
  0
BLOCK
  5
2B3
330
2B2
100
AcDbEntity
  8
0
100
AcDbBlockBegin
  2
*D13
 70
     1
 10
0.0
 20
0.0
 30
0.0
  3
*D13
  1

  0
LINE
  5
2B5
330
2B2
100
AcDbEntity
  8
0
 62
     0
100
AcDbLine
 10
7.602499999999999
 20
-1.560000000000005
 30
0.0
 11
11.08767045890993
 21
-1.560000000000005
 31
0.0
  0
LINE
  5
2B6
330
2B2
100
AcDbEntity
  8
0
 62
     0
100
AcDbLine
 10
7.1575
 20
-0.3100000000000001
 30
0.0
 11
11.08767045890993
 21
-0.3100000000000003
 31
0.0
  0
LINE
  5
2B7
330
2B2
100
AcDbEntity
  8
0
 62
     0
100
AcDbLine
 10
10.90767045890993
 20
-1.380000000000005
 30
0.0
 11
10.90767045890993
 21
-1.116890000000003
 31
0.0
  0
LINE
  5
2B8
330
2B2
100
AcDbEntity
  8
0
 62
     0
100
AcDbLine
 10
10.90767045890993
 20
-0.4900000000000003
 30
0.0
 11
10.90767045890993
 21
-0.7531100000000029
 31
0.0
  0
SOLID
  5
2B9
330
2B2
100
AcDbEntity
  8
0
 62
     0
100
AcDbTrace
 10
10.87767045890993
 20
-1.380000000000005
 30
0.0
 11
10.93767045890993
 21
-1.380000000000005
 31
0.0
 12
10.90767045890993
 22
-1.560000000000005
 32
0.0
 13
10.90767045890993
 23
-1.560000000000005
 33
0.0
  0
SOLID
  5
2BA
330
2B2
100
AcDbEntity
  8
0
 62
     0
100
AcDbTrace
 10
10.93767045890993
 20
-0.4900000000000003
 30
0.0
 11
10.87767045890993
 21
-0.4900000000000003
 31
0.0
 12
10.90767045890993
 22
-0.3100000000000003
 32
0.0
 13
10.90767045890993
 23
-0.3100000000000003
 33
0.0
  0
MTEXT
  5
2BB
330
2B2
100
AcDbEntity
  8
0
 62
     0
100
AcDbMText
 10
10.90767045890993
 20
-0.9350000000000028
 30
0.0
 40
0.18
 41
0.0
 71
     5
 72
     1
  1
\A1;1.2500
  0
POINT
  5
2BC
330
2B2
100
AcDbEntity
  8
DEFPOINTS
 62
     0
100
AcDbPoint
 10
7.539999999999999
 20
-1.560000000000005
 30
0.0
  0
POINT
  5
2BD
330
2B2
100
AcDbEntity
  8
DEFPOINTS
 62
     0
100
AcDbPoint
 10
7.095
 20
-0.3100000000000001
 30
0.0
  0
POINT
  5
2BE
330
2B2
100
AcDbEntity
  8
DEFPOINTS
 62
     0
100
AcDbPoint
 10
10.90767045890993
 20
-0.3100000000000003
 30
0.0
  0
ENDBLK
  5
2B4
330
2B2
100
AcDbEntity
  8
0
100
AcDbBlockEnd
  0
BLOCK
  5
2C3
330
2C2
100
AcDbEntity
  8
0
100
AcDbBlockBegin
  2
*D14
 70
     1
 10
0.0
 20
0.0
 30
0.0
  3
*D14
  1

  0
LINE
  5
2C5
330
2C2
100
AcDbEntity
  8
0
 62
     0
100
AcDbLine
 10
5.71
 20
-1.0325
 30
0.0
 11
5.71
 21
-5.585471625972638
 31
0.0
  0
LINE
  5
2C6
330
2C2
100
AcDbEntity
  8
0
 62
     0
100
AcDbLine
 10
0.11
 20
-1.0325
 30
0.0
 11
0.11
 21
-5.585471625972638
 31
0.0
  0
LINE
  5
2C7
330
2C2
100
AcDbEntity
  8
0
 62
     0
100
AcDbLine
 10
5.53
 20
-5.405471625972639
 30
0.0
 11
3.37287
 21
-5.405471625972639
 31
0.0
  0
LINE
  5
2C8
330
2C2
100
AcDbEntity
  8
0
 62
     0
100
AcDbLine
 10
0.29
 20
-5.405471625972639
 30
0.0
 11
2.447130000000001
 21
-5.405471625972639
 31
0.0
  0
SOLID
  5
2C9
330
2C2
100
AcDbEntity
  8
0
 62
     0
100
AcDbTrace
 10
5.53
 20
-5.435471625972639
 30
0.0
 11
5.53
 21
-5.375471625972638
 31
0.0
 12
5.71
 22
-5.405471625972639
 32
0.0
 13
5.71
 23
-5.405471625972639
 33
0.0
  0
SOLID
  5
2CA
330
2C2
100
AcDbEntity
  8
0
 62
     0
100
AcDbTrace
 10
0.29
 20
-5.375471625972638
 30
0.0
 11
0.29
 21
-5.435471625972639
 31
0.0
 12
0.11
 22
-5.405471625972639
 32
0.0
 13
0.11
 23
-5.405471625972639
 33
0.0
  0
MTEXT
  5
2CB
330
2C2
100
AcDbEntity
  8
0
 62
     0
100
AcDbMText
 10
2.91
 20
-5.405471625972639
 30
0.0
 40
0.18
 41
0.0
 71
     5
 72
     1
  1
\A1;5.6000
  0
POINT
  5
2CC
330
2C2
100
AcDbEntity
  8
DEFPOINTS
 62
     0
100
AcDbPoint
 10
5.71
 20
-0.97
 30
0.0
  0
POINT
  5
2CD
330
2C2
100
AcDbEntity
  8
DEFPOINTS
 62
     0
100
AcDbPoint
 10
0.11
 20
-0.97
 30
0.0
  0
POINT
  5
2CE
330
2C2
100
AcDbEntity
  8
DEFPOINTS
 62
     0
100
AcDbPoint
 10
0.11
 20
-5.405471625972639
 30
0.0
  0
ENDBLK
  5
2C4
330
2C2
100
AcDbEntity
  8
0
100
AcDbBlockEnd
  0
BLOCK
  5
2D3
330
2D2
100
AcDbEntity
  8
0
100
AcDbBlockBegin
  2
*D15
 70
     1
 10
0.0
 20
0.0
 30
0.0
  3
*D15
  1

  0
LINE
  5
2D5
330
2D2
100
AcDbEntity
  8
0
 62
     0
100
AcDbLine
 10
-1.420000000000008
 20
-6.947499999999995
 30
0.0
 11
-1.420000000000007
 21
-7.511471625972638
 31
0.0
  0
LINE
  5
2D6
330
2D2
100
AcDbEntity
  8
0
 62
     0
100
AcDbLine
 10
7.24
 20
-6.9475
 30
0.0
 11
7.24
 21
-7.511471625972638
 31
0.0
  0
LINE
  5
2D7
330
2D2
100
AcDbEntity
  8
0
 62
     0
100
AcDbLine
 10
-1.240000000000007
 20
-7.331471625972639
 30
0.0
 11
2.447039999999997
 21
-7.331471625972639
 31
0.0
  0
LINE
  5
2D8
330
2D2
100
AcDbEntity
  8
0
 62
     0
100
AcDbLine
 10
7.06
 20
-7.331471625972639
 30
0.0
 11
3.372959999999996
 21
-7.331471625972639
 31
0.0
  0
SOLID
  5
2D9
330
2D2
100
AcDbEntity
  8
0
 62
     0
100
AcDbTrace
 10
-1.240000000000007
 20
-7.301471625972638
 30
0.0
 11
-1.240000000000007
 21
-7.361471625972639
 31
0.0
 12
-1.420000000000007
 22
-7.331471625972639
 32
0.0
 13
-1.420000000000007
 23
-7.331471625972639
 33
0.0
  0
SOLID
  5
2DA
330
2D2
100
AcDbEntity
  8
0
 62
     0
100
AcDbTrace
 10
7.06
 20
-7.361471625972639
 30
0.0
 11
7.06
 21
-7.301471625972638
 31
0.0
 12
7.24
 22
-7.331471625972639
 32
0.0
 13
7.24
 23
-7.331471625972639
 33
0.0
  0
MTEXT
  5
2DB
330
2D2
100
AcDbEntity
  8
0
 62
     0
100
AcDbMText
 10
2.909999999999997
 20
-7.331471625972639
 30
0.0
 40
0.18
 41
0.0
 71
     5
 72
     1
  1
\A1;8.6600
  0
POINT
  5
2DC
330
2D2
100
AcDbEntity
  8
DEFPOINTS
 62
     0
100
AcDbPoint
 10
-1.420000000000008
 20
-6.884999999999995
 30
0.0
  0
POINT
  5
2DD
330
2D2
100
AcDbEntity
  8
DEFPOINTS
 62
     0
100
AcDbPoint
 10
7.24
 20
-6.885
 30
0.0
  0
POINT
  5
2DE
330
2D2
100
AcDbEntity
  8
DEFPOINTS
 62
     0
100
AcDbPoint
 10
7.24
 20
-7.331471625972639
 30
0.0
  0
ENDBLK
  5
2D4
330
2D2
100
AcDbEntity
  8
0
100
AcDbBlockEnd
  0
BLOCK
  5
2E3
330
2E2
100
AcDbEntity
  8
0
100
AcDbBlockBegin
  2
*D16
 70
     1
 10
0.0
 20
0.0
 30
0.0
  3
*D16
  1

  0
LINE
  5
2E5
330
2E2
100
AcDbEntity
  8
0
 62
     0
100
AcDbLine
 10
0.51
 20
-1.7225
 30
0.0
 11
0.5099999999999998
 21
-4.97537224709065
 31
0.0
  0
LINE
  5
2E6
330
2E2
100
AcDbEntity
  8
0
 62
     0
100
AcDbLine
 10
5.31
 20
-1.7225
 30
0.0
 11
5.31
 21
-4.97537224709065
 31
0.0
  0
LINE
  5
2E7
330
2E2
100
AcDbEntity
  8
0
 62
     0
100
AcDbLine
 10
0.6899999999999997
 20
-4.795372247090651
 30
0.0
 11
2.44353
 21
-4.795372247090651
 31
0.0
  0
LINE
  5
2E8
330
2E2
100
AcDbEntity
  8
0
 62
     0
100
AcDbLine
 10
5.13
 20
-4.795372247090651
 30
0.0
 11
3.37647
 21
-4.795372247090651
 31
0.0
  0
SOLID
  5
2E9
330
2E2
100
AcDbEntity
  8
0
 62
     0
100
AcDbTrace
 10
0.6899999999999997
 20
-4.76537224709065
 30
0.0
 11
0.6899999999999997
 21
-4.825372247090651
 31
0.0
 12
0.5099999999999998
 22
-4.795372247090651
 32
0.0
 13
0.5099999999999998
 23
-4.795372247090651
 33
0.0
  0
SOLID
  5
2EA
330
2E2
100
AcDbEntity
  8
0
 62
     0
100
AcDbTrace
 10
5.13
 20
-4.825372247090651
 30
0.0
 11
5.13
 21
-4.76537224709065
 31
0.0
 12
5.31
 22
-4.795372247090651
 32
0.0
 13
5.31
 23
-4.795372247090651
 33
0.0
  0
MTEXT
  5
2EB
330
2E2
100
AcDbEntity
  8
0
 62
     0
100
AcDbMText
 10
2.91
 20
-4.795372247090651
 30
0.0
 40
0.18
 41
0.0
 71
     5
 72
     1
  1
\A1;4.8000
  0
POINT
  5
2EC
330
2E2
100
AcDbEntity
  8
DEFPOINTS
 62
     0
100
AcDbPoint
 10
0.51
 20
-1.66
 30
0.0
  0
POINT
  5
2ED
330
2E2
100
AcDbEntity
  8
DEFPOINTS
 62
     0
100
AcDbPoint
 10
5.31
 20
-1.66
 30
0.0
  0
POINT
  5
2EE
330
2E2
100
AcDbEntity
  8
DEFPOINTS
 62
     0
100
AcDbPoint
 10
5.31
 20
-4.795372247090651
 30
0.0
  0
ENDBLK
  5
2E4
330
2E2
100
AcDbEntity
  8
0
100
AcDbBlockEnd
  0
BLOCK
  5
2F3
330
2F2
100
AcDbEntity
  8
0
100
AcDbBlockBegin
  2
*D17
 70
     1
 10
0.0
 20
0.0
 30
0.0
  3
*D17
  1

  0
LINE
  5
2F5
330
2F2
100
AcDbEntity
  8
0
 62
     0
100
AcDbLine
 10
1.31
 20
-1.7225
 30
0.0
 11
1.31
 21
-4.245645539016117
 31
0.0
  0
LINE
  5
2F6
330
2F2
100
AcDbEntity
  8
0
 62
     0
100
AcDbLine
 10
4.51
 20
-1.7225
 30
0.0
 11
4.51
 21
-4.245645539016117
 31
0.0
  0
LINE
  5
2F7
330
2F2
100
AcDbEntity
  8
0
 62
     0
100
AcDbLine
 10
1.49
 20
-4.065645539016117
 30
0.0
 11
2.44722
 21
-4.065645539016117
 31
0.0
  0
LINE
  5
2F8
330
2F2
100
AcDbEntity
  8
0
 62
     0
100
AcDbLine
 10
4.33
 20
-4.065645539016117
 30
0.0
 11
3.37278
 21
-4.065645539016117
 31
0.0
  0
SOLID
  5
2F9
330
2F2
100
AcDbEntity
  8
0
 62
     0
100
AcDbTrace
 10
1.49
 20
-4.035645539016117
 30
0.0
 11
1.49
 21
-4.095645539016117
 31
0.0
 12
1.31
 22
-4.065645539016117
 32
0.0
 13
1.31
 23
-4.065645539016117
 33
0.0
  0
SOLID
  5
2FA
330
2F2
100
AcDbEntity
  8
0
 62
     0
100
AcDbTrace
 10
4.33
 20
-4.095645539016117
 30
0.0
 11
4.33
 21
-4.035645539016117
 31
0.0
 12
4.51
 22
-4.065645539016117
 32
0.0
 13
4.51
 23
-4.065645539016117
 33
0.0
  0
MTEXT
  5
2FB
330
2F2
100
AcDbEntity
  8
0
 62
     0
100
AcDbMText
 10
2.91
 20
-4.065645539016117
 30
0.0
 40
0.18
 41
0.0
 71
     5
 72
     1
  1
\A1;3.2000
  0
POINT
  5
2FC
330
2F2
100
AcDbEntity
  8
DEFPOINTS
 62
     0
100
AcDbPoint
 10
1.31
 20
-1.66
 30
0.0
  0
POINT
  5
2FD
330
2F2
100
AcDbEntity
  8
DEFPOINTS
 62
     0
100
AcDbPoint
 10
4.51
 20
-1.66
 30
0.0
  0
POINT
  5
2FE
330
2F2
100
AcDbEntity
  8
DEFPOINTS
 62
     0
100
AcDbPoint
 10
4.51
 20
-4.065645539016117
 30
0.0
  0
ENDBLK
  5
2F4
330
2F2
100
AcDbEntity
  8
0
100
AcDbBlockEnd
  0
BLOCK
  5
303
330
302
100
AcDbEntity
  8
0
100
AcDbBlockBegin
  2
*D18
 70
     1
 10
0.0
 20
0.0
 30
0.0
  3
*D18
  1

  0
LINE
  5
305
330
302
100
AcDbEntity
  8
0
 62
     0
100
AcDbLine
 10
1.71
 20
-1.0325
 30
0.0
 11
1.71
 21
-3.826949886842203
 31
0.0
  0
LINE
  5
306
330
302
100
AcDbEntity
  8
0
 62
     0
100
AcDbLine
 10
4.109999999999999
 20
-1.0325
 30
0.0
 11
4.109999999999999
 21
-3.826949886842203
 31
0.0
  0
LINE
  5
307
330
302
100
AcDbEntity
  8
0
 62
     0
100
AcDbLine
 10
1.89
 20
-3.646949886842203
 30
0.0
 11
2.4456
 21
-3.646949886842203
 31
0.0
  0
LINE
  5
308
330
302
100
AcDbEntity
  8
0
 62
     0
100
AcDbLine
 10
3.929999999999999
 20
-3.646949886842203
 30
0.0
 11
3.3744
 21
-3.646949886842203
 31
0.0
  0
SOLID
  5
309
330
302
100
AcDbEntity
  8
0
 62
     0
100
AcDbTrace
 10
1.89
 20
-3.616949886842203
 30
0.0
 11
1.89
 21
-3.676949886842203
 31
0.0
 12
1.71
 22
-3.646949886842203
 32
0.0
 13
1.71
 23
-3.646949886842203
 33
0.0
  0
SOLID
  5
30A
330
302
100
AcDbEntity
  8
0
 62
     0
100
AcDbTrace
 10
3.929999999999999
 20
-3.676949886842203
 30
0.0
 11
3.929999999999999
 21
-3.616949886842203
 31
0.0
 12
4.109999999999999
 22
-3.646949886842203
 32
0.0
 13
4.109999999999999
 23
-3.646949886842203
 33
0.0
  0
MTEXT
  5
30B
330
302
100
AcDbEntity
  8
0
 62
     0
100
AcDbMText
 10
2.91
 20
-3.646949886842203
 30
0.0
 40
0.18
 41
0.0
 71
     5
 72
     1
  1
\A1;2.4000
  0
POINT
  5
30C
330
302
100
AcDbEntity
  8
DEFPOINTS
 62
     0
100
AcDbPoint
 10
1.71
 20
-0.97
 30
0.0
  0
POINT
  5
30D
330
302
100
AcDbEntity
  8
DEFPOINTS
 62
     0
100
AcDbPoint
 10
4.109999999999999
 20
-0.97
 30
0.0
  0
POINT
  5
30E
330
302
100
AcDbEntity
  8
DEFPOINTS
 62
     0
100
AcDbPoint
 10
4.109999999999999
 20
-3.646949886842203
 30
0.0
  0
ENDBLK
  5
304
330
302
100
AcDbEntity
  8
0
100
AcDbBlockEnd
  0
BLOCK
  5
313
330
312
100
AcDbEntity
  8
0
100
AcDbBlockBegin
  2
*D19
 70
     1
 10
0.0
 20
0.0
 30
0.0
  3
*D19
  1

  0
LINE
  5
315
330
312
100
AcDbEntity
  8
0
 62
     0
100
AcDbLine
 10
2.11
 20
-1.7225
 30
0.0
 11
2.11
 21
-3.180962309202452
 31
0.0
  0
LINE
  5
316
330
312
100
AcDbEntity
  8
0
 62
     0
100
AcDbLine
 10
3.71
 20
-1.7225
 30
0.0
 11
3.71
 21
-3.180962309202452
 31
0.0
  0
LINE
  5
317
330
312
100
AcDbEntity
  8
0
 62
     0
100
AcDbLine
 10
2.29
 20
-3.000962309202452
 30
0.0
 11
2.45559
 21
-3.000962309202452
 31
0.0
  0
LINE
  5
318
330
312
100
AcDbEntity
  8
0
 62
     0
100
AcDbLine
 10
3.53
 20
-3.000962309202452
 30
0.0
 11
3.364409999999999
 21
-3.000962309202452
 31
0.0
  0
SOLID
  5
319
330
312
100
AcDbEntity
  8
0
 62
     0
100
AcDbTrace
 10
2.29
 20
-2.970962309202452
 30
0.0
 11
2.29
 21
-3.030962309202451
 31
0.0
 12
2.11
 22
-3.000962309202452
 32
0.0
 13
2.11
 23
-3.000962309202452
 33
0.0
  0
SOLID
  5
31A
330
312
100
AcDbEntity
  8
0
 62
     0
100
AcDbTrace
 10
3.53
 20
-3.030962309202451
 30
0.0
 11
3.53
 21
-2.970962309202452
 31
0.0
 12
3.71
 22
-3.000962309202452
 32
0.0
 13
3.71
 23
-3.000962309202452
 33
0.0
  0
MTEXT
  5
31B
330
312
100
AcDbEntity
  8
0
 62
     0
100
AcDbMText
 10
2.91
 20
-3.000962309202452
 30
0.0
 40
0.18
 41
0.0
 71
     5
 72
     1
  1
\A1;1.6000
  0
POINT
  5
31C
330
312
100
AcDbEntity
  8
DEFPOINTS
 62
     0
100
AcDbPoint
 10
2.11
 20
-1.66
 30
0.0
  0
POINT
  5
31D
330
312
100
AcDbEntity
  8
DEFPOINTS
 62
     0
100
AcDbPoint
 10
3.71
 20
-1.66
 30
0.0
  0
POINT
  5
31E
330
312
100
AcDbEntity
  8
DEFPOINTS
 62
     0
100
AcDbPoint
 10
3.71
 20
-3.000962309202452
 30
0.0
  0
ENDBLK
  5
314
330
312
100
AcDbEntity
  8
0
100
AcDbBlockEnd
  0
BLOCK
  5
323
330
322
100
AcDbEntity
  8
0
100
AcDbBlockBegin
  2
*D20
 70
     1
 10
0.0
 20
0.0
 30
0.0
  3
*D20
  1

  0
LINE
  5
325
330
322
100
AcDbEntity
  8
0
 62
     0
100
AcDbLine
 10
2.51
 20
-1.0325
 30
0.0
 11
2.51
 21
-2.511049265724191
 31
0.0
  0
LINE
  5
326
330
322
100
AcDbEntity
  8
0
 62
     0
100
AcDbLine
 10
3.31
 20
-1.0325
 30
0.0
 11
3.31
 21
-2.511049265724191
 31
0.0
  0
LINE
  5
327
330
322
100
AcDbEntity
  8
0
 62
     0
100
AcDbLine
 10
2.51
 20
-2.331049265724191
 30
0.0
 11
3.49
 21
-2.331049265724191
 31
0.0
  0
LINE
  5
328
330
322
100
AcDbEntity
  8
0
 62
     0
100
AcDbLine
 10
2.69
 20
-2.331049265724191
 30
0.0
 11
3.129999999999999
 21
-2.331049265724191
 31
0.0
  0
LINE
  5
329
330
322
100
AcDbEntity
  8
0
 62
     0
100
AcDbLine
 10
3.129999999999999
 20
-2.331049265724191
 30
0.0
 11
2.69
 21
-2.331049265724191
 31
0.0
  0
SOLID
  5
32A
330
322
100
AcDbEntity
  8
0
 62
     0
100
AcDbTrace
 10
2.69
 20
-2.301049265724191
 30
0.0
 11
2.69
 21
-2.361049265724191
 31
0.0
 12
2.51
 22
-2.331049265724191
 32
0.0
 13
2.51
 23
-2.331049265724191
 33
0.0
  0
SOLID
  5
32B
330
322
100
AcDbEntity
  8
0
 62
     0
100
AcDbTrace
 10
3.129999999999999
 20
-2.361049265724191
 30
0.0
 11
3.129999999999999
 21
-2.301049265724191
 31
0.0
 12
3.31
 22
-2.331049265724191
 32
0.0
 13
3.31
 23
-2.331049265724191
 33
0.0
  0
MTEXT
  5
32C
330
322
100
AcDbEntity
  8
0
 62
     0
100
AcDbMText
 10
3.952869999999999
 20
-2.331049265724191
 30
0.0
 40
0.18
 41
0.0
 71
     5
 72
     1
  1
\A1;0.8000
  0
POINT
  5
32D
330
322
100
AcDbEntity
  8
DEFPOINTS
 62
     0
100
AcDbPoint
 10
2.51
 20
-0.97
 30
0.0
  0
POINT
  5
32E
330
322
100
AcDbEntity
  8
DEFPOINTS
 62
     0
100
AcDbPoint
 10
3.31
 20
-0.97
 30
0.0
  0
POINT
  5
32F
330
322
100
AcDbEntity
  8
DEFPOINTS
 62
     0
100
AcDbPoint
 10
3.31
 20
-2.331049265724191
 30
0.0
  0
ENDBLK
  5
324
330
322
100
AcDbEntity
  8
0
100
AcDbBlockEnd
  0
ENDSEC
  0
SECTION
  2
ENTITIES
  0
LWPOLYLINE
  5
130
102
{ACAD_REACTORS
330
23D
330
24D
102
}
330
1F
100
AcDbEntity
  8
0
100
AcDbPolyline
 90
        4
 70
     1
 43
0.0
 10
0.0
 20
0.0
 10
0.0
 20
0.6999999999999998
 10
0.3200000000000001
 20
0.6999999999999998
 10
0.3200000000000001
 20
0.0
  0
LWPOLYLINE
  5
13D
330
1F
100
AcDbEntity
  8
0
100
AcDbPolyline
 90
        4
 70
     1
 43
0.0
 10
0.5
 20
0.0000000000000001
 10
0.5
 20
0.7
 10
0.8200000000000001
 20
0.7
 10
0.8200000000000001
 20
0.0000000000000001
  0
LWPOLYLINE
  5
13E
330
1F
100
AcDbEntity
  8
0
100
AcDbPolyline
 90
        4
 70
     1
 43
0.0
 10
1.0
 20
0.0000000000000002
 10
1.0
 20
0.7000000000000001
 10
1.32
 20
0.7000000000000001
 10
1.32
 20
0.0000000000000002
  0
LWPOLYLINE
  5
13F
330
1F
100
AcDbEntity
  8
0
100
AcDbPolyline
 90
        4
 70
     1
 43
0.0
 10
1.5
 20
0.0000000000000004
 10
1.5
 20
0.7000000000000002
 10
1.82
 20
0.7000000000000002
 10
1.82
 20
0.0000000000000004
  0
LWPOLYLINE
  5
140
330
1F
100
AcDbEntity
  8
0
100
AcDbPolyline
 90
        4
 70
     1
 43
0.0
 10
2.0
 20
0.0000000000000005
 10
2.0
 20
0.7000000000000003
 10
2.32
 20
0.7000000000000003
 10
2.32
 20
0.0000000000000005
  0
LWPOLYLINE
  5
141
330
1F
100
AcDbEntity
  8
0
100
AcDbPolyline
 90
        4
 70
     1
 43
0.0
 10
2.5
 20
0.0000000000000006
 10
2.5
 20
0.7000000000000005
 10
2.82
 20
0.7000000000000005
 10
2.82
 20
0.0000000000000006
  0
LWPOLYLINE
  5
142
330
1F
100
AcDbEntity
  8
0
100
AcDbPolyline
 90
        4
 70
     1
 43
0.0
 10
3.0
 20
0.0000000000000007
 10
3.0
 20
0.7000000000000006
 10
3.32
 20
0.7000000000000006
 10
3.32
 20
0.0000000000000007
  0
LWPOLYLINE
  5
143
330
1F
100
AcDbEntity
  8
0
100
AcDbPolyline
 90
        4
 70
     1
 43
0.0
 10
3.5
 20
0.0000000000000009
 10
3.5
 20
0.7000000000000007
 10
3.82
 20
0.7000000000000007
 10
3.82
 20
0.0000000000000009
  0
LWPOLYLINE
  5
144
330
1F
100
AcDbEntity
  8
0
100
AcDbPolyline
 90
        4
 70
     1
 43
0.0
 10
4.0
 20
0.000000000000001
 10
4.0
 20
0.7000000000000008
 10
4.32
 20
0.7000000000000008
 10
4.32
 20
0.000000000000001
  0
LWPOLYLINE
  5
145
330
1F
100
AcDbEntity
  8
0
100
AcDbPolyline
 90
        4
 70
     1
 43
0.0
 10
4.5
 20
0.0000000000000011
 10
4.5
 20
0.700000000000001
 10
4.82
 20
0.700000000000001
 10
4.82
 20
0.0000000000000011
  0
LWPOLYLINE
  5
146
330
1F
100
AcDbEntity
  8
0
100
AcDbPolyline
 90
        4
 70
     1
 43
0.0
 10
5.0
 20
0.0000000000000012
 10
5.0
 20
0.7000000000000011
 10
5.32
 20
0.7000000000000011
 10
5.32
 20
0.0000000000000012
  0
LWPOLYLINE
  5
147
102
{ACAD_REACTORS
330
23D
330
26D
102
}
330
1F
100
AcDbEntity
  8
0
100
AcDbPolyline
 90
        4
 70
     1
 43
0.0
 10
5.5
 20
0.0000000000000013
 10
5.5
 20
0.7000000000000012
 10
5.82
 20
0.7000000000000012
 10
5.82
 20
0.0000000000000013
  0
CIRCLE
  5
149
102
{ACAD_REACTORS
330
22D
102
}
330
1F
100
AcDbEntity
  8
0
100
AcDbCircle
 10
-0.69
 20
-0.31
 30
0.0
 40
0.425
  0
ARC
  5
14E
330
1F
100
AcDbEntity
  8
0
100
AcDbCircle
 10
6.37
 20
-0.31
 30
0.0
 40
0.425
100
AcDbArc
 50
90.0
 51
270.0
  0
ARC
  5
14F
102
{ACAD_REACTORS
330
291
102
}
330
1F
100
AcDbEntity
  8
0
100
AcDbCircle
 10
6.67
 20
-0.31
 30
0.0
 40
0.425
100
AcDbArc
 50
270.0
 51
90.0
  0
LINE
  5
150
102
{ACAD_REACTORS
330
22D
330
27F
102
}
330
1F
100
AcDbEntity
  8
0
100
AcDbLine
 10
6.37
 20
0.115
 30
0.0
 11
6.67
 21
0.115
 31
0.0
  0
LINE
  5
151
102
{ACAD_REACTORS
330
27F
102
}
330
1F
100
AcDbEntity
  8
0
100
AcDbLine
 10
6.37
 20
-0.7350000000000001
 30
0.0
 11
6.67
 21
-0.7350000000000001
 31
0.0
  0
CIRCLE
  5
153
102
{ACAD_REACTORS
330
159
102
}
330
1F
100
AcDbEntity
  8
0
100
AcDbCircle
 10
0.11
 20
-0.97
 30
0.0
 40
0.2
  0
CIRCLE
  5
154
102
{ACAD_REACTORS
330
169
102
}
330
1F
100
AcDbEntity
  8
0
100
AcDbCircle
 10
1.71
 20
-0.97
 30
0.0
 40
0.2
  0
CIRCLE
  5
155
102
{ACAD_REACTORS
330
159
330
2C1
102
}
330
1F
100
AcDbEntity
  8
0
100
AcDbCircle
 10
5.71
 20
-0.97
 30
0.0
 40
0.2
  0
CIRCLE
  5
156
102
{ACAD_REACTORS
330
169
102
}
330
1F
100
AcDbEntity
  8
0
100
AcDbCircle
 10
4.109999999999999
 20
-0.97
 30
0.0
 40
0.2
  0
CIRCLE
  5
178
330
1F
100
AcDbEntity
  8
0
100
AcDbCircle
 10
2.51
 20
-0.97
 30
0.0
 40
0.2
  0
CIRCLE
  5
179
330
1F
100
AcDbEntity
  8
0
100
AcDbCircle
 10
3.31
 20
-0.97
 30
0.0
 40
0.2
  0
CIRCLE
  5
17B
330
1F
100
AcDbEntity
  8
0
100
AcDbCircle
 10
5.71
 20
-0.97
 30
0.0
 40
0.3
  0
CIRCLE
  5
17C
102
{ACAD_REACTORS
330
301
102
}
330
1F
100
AcDbEntity
  8
0
100
AcDbCircle
 10
4.109999999999999
 20
-0.97
 30
0.0
 40
0.3
  0
CIRCLE
  5
17D
102
{ACAD_REACTORS
330
321
102
}
330
1F
100
AcDbEntity
  8
0
100
AcDbCircle
 10
3.31
 20
-0.97
 30
0.0
 40
0.3
  0
CIRCLE
  5
17E
102
{ACAD_REACTORS
330
321
102
}
330
1F
100
AcDbEntity
  8
0
100
AcDbCircle
 10
2.51
 20
-0.97
 30
0.0
 40
0.3
  0
CIRCLE
  5
17F
102
{ACAD_REACTORS
330
301
102
}
330
1F
100
AcDbEntity
  8
0
100
AcDbCircle
 10
1.71
 20
-0.97
 30
0.0
 40
0.3
  0
CIRCLE
  5
180
102
{ACAD_REACTORS
330
2C1
102
}
330
1F
100
AcDbEntity
  8
0
100
AcDbCircle
 10
0.11
 20
-0.97
 30
0.0
 40
0.3
  0
CIRCLE
  5
1CA
102
{ACAD_REACTORS
330
2E1
102
}
330
1F
100
AcDbEntity
  8
0
100
AcDbCircle
 10
0.51
 20
-1.66
 30
0.0
 40
0.2
  0
CIRCLE
  5
1CB
330
1F
100
AcDbEntity
  8
0
100
AcDbCircle
 10
5.31
 20
-1.66
 30
0.0
 40
0.2
  0
CIRCLE
  5
1CC
330
1F
100
AcDbEntity
  8
0
100
AcDbCircle
 10
1.31
 20
-1.66
 30
0.0
 40
0.2
  0
CIRCLE
  5
1CD
102
{ACAD_REACTORS
330
2F1
102
}
330
1F
100
AcDbEntity
  8
0
100
AcDbCircle
 10
4.51
 20
-1.66
 30
0.0
 40
0.2
  0
CIRCLE
  5
1CE
330
1F
100
AcDbEntity
  8
0
100
AcDbCircle
 10
2.11
 20
-1.66
 30
0.0
 40
0.2
  0
CIRCLE
  5
1CF
102
{ACAD_REACTORS
330
311
102
}
330
1F
100
AcDbEntity
  8
0
100
AcDbCircle
 10
3.71
 20
-1.66
 30
0.0
 40
0.2
  0
CIRCLE
  5
1D0
330
1F
100
AcDbEntity
  8
0
100
AcDbCircle
 10
0.51
 20
-1.66
 30
0.0
 40
0.3
  0
CIRCLE
  5
1D1
102
{ACAD_REACTORS
330
2F1
102
}
330
1F
100
AcDbEntity
  8
0
100
AcDbCircle
 10
1.31
 20
-1.66
 30
0.0
 40
0.3
  0
CIRCLE
  5
1D2
102
{ACAD_REACTORS
330
311
102
}
330
1F
100
AcDbEntity
  8
0
100
AcDbCircle
 10
2.11
 20
-1.66
 30
0.0
 40
0.3
  0
CIRCLE
  5
1D3
330
1F
100
AcDbEntity
  8
0
100
AcDbCircle
 10
3.71
 20
-1.66
 30
0.0
 40
0.3
  0
CIRCLE
  5
1D4
330
1F
100
AcDbEntity
  8
0
100
AcDbCircle
 10
4.51
 20
-1.66
 30
0.0
 40
0.3
  0
CIRCLE
  5
1D5
102
{ACAD_REACTORS
330
2E1
102
}
330
1F
100
AcDbEntity
  8
0
100
AcDbCircle
 10
5.31
 20
-1.66
 30
0.0
 40
0.3
  0
ARC
  5
1D7
102
{ACAD_REACTORS
330
21D
102
}
330
1F
100
AcDbEntity
  8
0
100
AcDbCircle
 10
-0.77
 20
-1.31
 30
0.0
 40
0.3
100
AcDbArc
 50
270.0
 51
90.0
  0
ARC
  5
1D8
102
{ACAD_REACTORS
330
20D
102
}
330
1F
100
AcDbEntity
  8
0
100
AcDbCircle
 10
-1.42
 20
-1.31
 30
0.0
 40
0.3
100
AcDbArc
 50
90.0
 51
180.0
  0
ARC
  5
1D9
330
1F
100
AcDbEntity
  8
0
100
AcDbCircle
 10
-1.42
 20
-1.81
 30
0.0
 40
0.3
100
AcDbArc
 50
180.0
 51
0.0
  0
LINE
  5
1DB
330
1F
100
AcDbEntity
  8
0
100
AcDbLine
 10
-0.77
 20
-1.01
 30
0.0
 11
-1.42
 21
-1.01
 31
0.0
  0
LINE
  5
1DC
330
1F
100
AcDbEntity
  8
0
100
AcDbLine
 10
-0.77
 20
-1.61
 30
0.0
 11
-1.12
 21
-1.61
 31
0.0
  0
LINE
  5
1DD
330
1F
100
AcDbEntity
  8
0
100
AcDbLine
 10
-1.72
 20
-1.31
 30
0.0
 11
-1.72
 21
-1.81
 31
0.0
  0
LINE
  5
1DE
330
1F
100
AcDbEntity
  8
0
100
AcDbLine
 10
-1.12
 20
-1.81
 30
0.0
 11
-1.12
 21
-1.61
 31
0.0
  0
LINE
  5
1E2
330
1F
100
AcDbEntity
  8
0
100
AcDbLine
 10
-0.77
 20
-0.86
 30
0.0
 11
-1.42
 21
-0.86
 31
0.0
  0
ARC
  5
1E3
330
1F
100
AcDbEntity
  8
0
100
AcDbCircle
 10
-0.77
 20
-1.31
 30
0.0
 40
0.45
100
AcDbArc
 50
270.0
 51
90.0
  0
LINE
  5
1E4
330
1F
100
AcDbEntity
  8
0
100
AcDbLine
 10
-0.77
 20
-1.76
 30
0.0
 11
-0.9699999999999999
 21
-1.76
 31
0.0
  0
LINE
  5
1E5
330
1F
100
AcDbEntity
  8
0
100
AcDbLine
 10
-0.9699999999999999
 20
-1.81
 30
0.0
 11
-0.9699999999999999
 21
-1.76
 31
0.0
  0
ARC
  5
1E6
330
1F
100
AcDbEntity
  8
0
100
AcDbCircle
 10
-1.42
 20
-1.81
 30
0.0
 40
0.45
100
AcDbArc
 50
180.0
 51
0.0
  0
LINE
  5
1E7
330
1F
100
AcDbEntity
  8
0
100
AcDbLine
 10
-1.87
 20
-1.31
 30
0.0
 11
-1.87
 21
-1.81
 31
0.0
  0
ARC
  5
1E8
330
1F
100
AcDbEntity
  8
0
100
AcDbCircle
 10
-1.42
 20
-1.31
 30
0.0
 40
0.45
100
AcDbArc
 50
90.0
 51
180.0
  0
LINE
  5
1EA
330
1F
100
AcDbEntity
  8
0
100
AcDbLine
 10
6.589999999999999
 20
-1.010000000000004
 30
0.0
 11
7.239999999999999
 21
-1.010000000000005
 31
0.0
  0
LINE
  5
1EB
102
{ACAD_REACTORS
330
2B1
102
}
330
1F
100
AcDbEntity
  8
0
100
AcDbLine
 10
7.539999999999999
 20
-1.310000000000005
 30
0.0
 11
7.539999999999998
 21
-1.810000000000005
 31
0.0
  0
LINE
  5
1EC
330
1F
100
AcDbEntity
  8
0
100
AcDbLine
 10
6.939999999999998
 20
-1.810000000000004
 30
0.0
 11
6.939999999999999
 21
-1.610000000000005
 31
0.0
  0
ARC
  5
1ED
102
{ACAD_REACTORS
330
20D
330
2A1
102
}
330
1F
100
AcDbEntity
  8
0
100
AcDbCircle
 10
7.239999999999998
 20
-1.310000000000005
 30
0.0
 40
0.3
100
AcDbArc
 50
359.9999999999999
 51
89.99999999999983
  0
ARC
  5
1EE
330
1F
100
AcDbEntity
  8
0
100
AcDbCircle
 10
7.239999999999998
 20
-1.810000000000005
 30
0.0
 40
0.3
100
AcDbArc
 50
180.0
 51
359.9999999999999
  0
LINE
  5
1EF
330
1F
100
AcDbEntity
  8
0
100
AcDbLine
 10
6.589999999999998
 20
-1.610000000000004
 30
0.0
 11
6.939999999999999
 21
-1.610000000000005
 31
0.0
  0
ARC
  5
1F0
330
1F
100
AcDbEntity
  8
0
100
AcDbCircle
 10
6.589999999999999
 20
-1.310000000000004
 30
0.0
 40
0.3
100
AcDbArc
 50
90.0
 51
269.9999999999998
  0
LINE
  5
1F1
330
1F
100
AcDbEntity
  8
0
100
AcDbLine
 10
6.589999999999999
 20
-0.860000000000004
 30
0.0
 11
7.239999999999999
 21
-0.8600000000000048
 31
0.0
  0
ARC
  5
1F2
102
{ACAD_REACTORS
330
21D
330
291
102
}
330
1F
100
AcDbEntity
  8
0
100
AcDbCircle
 10
6.589999999999999
 20
-1.310000000000004
 30
0.0
 40
0.45
100
AcDbArc
 50
90.0
 51
269.9999999999999
  0
ARC
  5
1F3
330
1F
100
AcDbEntity
  8
0
100
AcDbCircle
 10
7.239999999999998
 20
-1.810000000000005
 30
0.0
 40
0.45
100
AcDbArc
 50
179.9999999999999
 51
359.9999999999999
  0
LINE
  5
1F4
330
1F
100
AcDbEntity
  8
0
100
AcDbLine
 10
7.689999999999999
 20
-1.310000000000005
 30
0.0
 11
7.689999999999999
 21
-1.810000000000005
 31
0.0
  0
ARC
  5
1F5
330
1F
100
AcDbEntity
  8
0
100
AcDbCircle
 10
7.239999999999998
 20
-1.310000000000005
 30
0.0
 40
0.45
100
AcDbArc
 50
359.9999999999999
 51
89.99999999999989
  0
LINE
  5
1F6
330
1F
100
AcDbEntity
  8
0
100
AcDbLine
 10
6.589999999999998
 20
-1.760000000000004
 30
0.0
 11
6.789999999999998
 21
-1.760000000000004
 31
0.0
  0
LINE
  5
1F7
330
1F
100
AcDbEntity
  8
0
100
AcDbLine
 10
6.789999999999998
 20
-1.810000000000004
 30
0.0
 11
6.789999999999998
 21
-1.760000000000004
 31
0.0
  0
ARC
  5
1FA
330
1F
100
AcDbEntity
  8
0
100
AcDbCircle
 10
7.24
 20
-6.035
 30
0.0
 40
0.3
100
AcDbArc
 50
0.0
 51
180.0
  0
ARC
  5
1FB
330
1F
100
AcDbEntity
  8
0
100
AcDbCircle
 10
7.24
 20
-6.585
 30
0.0
 40
0.3
100
AcDbArc
 50
180.0
 51
0.0
  0
LINE
  5
1FC
330
1F
100
AcDbEntity
  8
0
100
AcDbLine
 10
7.54
 20
-6.035
 30
0.0
 11
7.54
 21
-6.585
 31
0.0
  0
LINE
  5
1FD
330
1F
100
AcDbEntity
  8
0
100
AcDbLine
 10
6.94
 20
-6.035
 30
0.0
 11
6.94
 21
-6.585
 31
0.0
  0
LINE
  5
1FE
330
1F
100
AcDbEntity
  8
0
100
AcDbLine
 10
7.69
 20
-6.035
 30
0.0
 11
7.69
 21
-6.585
 31
0.0
  0
ARC
  5
1FF
330
1F
100
AcDbEntity
  8
0
100
AcDbCircle
 10
7.24
 20
-6.035
 30
0.0
 40
0.45
100
AcDbArc
 50
0.0
 51
180.0
  0
LINE
  5
200
330
1F
100
AcDbEntity
  8
0
100
AcDbLine
 10
6.79
 20
-6.035
 30
0.0
 11
6.79
 21
-6.585
 31
0.0
  0
ARC
  5
201
330
1F
100
AcDbEntity
  8
0
100
AcDbCircle
 10
7.24
 20
-6.585
 30
0.0
 40
0.45
100
AcDbArc
 50
180.0
 51
0.0
  0
LINE
  5
202
330
1F
100
AcDbEntity
  8
0
100
AcDbLine
 10
-1.720000000000007
 20
-6.034999999999995
 30
0.0
 11
-1.720000000000007
 21
-6.584999999999994
 31
0.0
  0
LINE
  5
203
330
1F
100
AcDbEntity
  8
0
100
AcDbLine
 10
-1.120000000000007
 20
-6.034999999999995
 30
0.0
 11
-1.120000000000007
 21
-6.584999999999996
 31
0.0
  0
ARC
  5
204
330
1F
100
AcDbEntity
  8
0
100
AcDbCircle
 10
-1.420000000000007
 20
-6.034999999999995
 30
0.0
 40
0.3
100
AcDbArc
 50
0.0
 51
180.0
  0
ARC
  5
205
330
1F
100
AcDbEntity
  8
0
100
AcDbCircle
 10
-1.420000000000007
 20
-6.584999999999996
 30
0.0
 40
0.3
100
AcDbArc
 50
179.9999999999997
 51
0.0
  0
LINE
  5
206
330
1F
100
AcDbEntity
  8
0
100
AcDbLine
 10
-1.870000000000007
 20
-6.034999999999995
 30
0.0
 11
-1.870000000000007
 21
-6.584999999999994
 31
0.0
  0
ARC
  5
207
330
1F
100
AcDbEntity
  8
0
100
AcDbCircle
 10
-1.420000000000007
 20
-6.034999999999995
 30
0.0
 40
0.45
100
AcDbArc
 50
0.0
 51
180.0
  0
LINE
  5
208
330
1F
100
AcDbEntity
  8
0
100
AcDbLine
 10
-0.9700000000000069
 20
-6.034999999999995
 30
0.0
 11
-0.9700000000000069
 21
-6.584999999999996
 31
0.0
  0
ARC
  5
209
330
1F
100
AcDbEntity
  8
0
100
AcDbCircle
 10
-1.420000000000007
 20
-6.584999999999996
 30
0.0
 40
0.45
100
AcDbArc
 50
179.9999999999998
 51
0.0
  0
ENDSEC
  0
SECTION
  2
OBJECTS
  0
DICTIONARY
  5
C
330
0
100
AcDbDictionary
  3
ACAD_DETAILVIEWSTYLE
350
122
  3
ACAD_GROUP
350
D
  3
ACAD_IMAGE_VARS
350
DC
  3
ACAD_MLINESTYLE
350
17
  3
ACAD_SCALELIST
350
B6
  3
ACAD_SECTIONVIEWSTYLE
350
123
  3
ACDBVARIABLEDICTIONARY
350
66
  3
APPDATA
350
E1
  3
DIMOFFSETDICTIONARY
350
129
  3
DWGPROPS
350
333
  0
DICTIONARY
  5
122
102
{ACAD_REACTORS
330
C
102
}
330
C
100
AcDbDictionary
  0
DICTIONARY
  5
D
102
{ACAD_REACTORS
330
C
102
}
330
C
100
AcDbDictionary
  0
RASTERVARIABLES
  5
DC
102
{ACAD_REACTORS
330
C
102
}
330
C
100
AcDbRasterVariables
 90
        0
 70
     1
 71
     1
 72
     5
  0
DICTIONARY
  5
17
102
{ACAD_REACTORS
330
C
102
}
330
C
100
AcDbDictionary
  3
STANDARD
350
18
  0
DICTIONARY
  5
B6
102
{ACAD_REACTORS
330
C
102
}
330
C
100
AcDbDictionary
  0
DICTIONARY
  5
123
102
{ACAD_REACTORS
330
C
102
}
330
C
100
AcDbDictionary
  0
DICTIONARY
  5
66
102
{ACAD_REACTORS
330
C
102
}
330
C
100
AcDbDictionary
  3
DIMASSOC
350
67
  3
HIDETEXT
350
6B
  0
DICTIONARY
  5
E1
102
{ACAD_REACTORS
330
C
102
}
330
C
100
AcDbDictionary
  0
DICTIONARY
  5
129
102
{ACAD_REACTORS
330
C
102
}
330
C
100
AcDbDictionary
  3
DIMRAILSENABLED
350
13C
  0
XRECORD
  5
333
102
{ACAD_REACTORS
330
C
102
}
330
C
100
AcDbXrecord
  1
DWGPROPS COOKIE
  2

  3

  4

  6

  7

  8
engineering2
  9

300
=
301
=
302
=
303
=
304
=
305
=
306
=
307
=
308
=
309
=
 40
0.0
 41
2452643.063384271
 42
2458235.78552265
  1

 90
        0
  0
MLINESTYLE
  5
18
102
{ACAD_REACTORS
330
17
102
}
330
17
100
AcDbMlineStyle
  2
STANDARD
 70
     0
  3

 62
   256
 51
90.0
 52
90.0
 71
     2
 49
0.5
 62
   256
  6
BYLAYER
 49
-0.5
 62
   256
  6
BYLAYER
  0
DICTIONARYVAR
  5
67
102
{ACAD_REACTORS
330
66
102
}
330
66
100
DictionaryVariables
280
     0
  1
2
  0
DICTIONARYVAR
  5
6B
102
{ACAD_REACTORS
330
66
102
}
330
66
100
DictionaryVariables
280
     0
  1
1
  0
DICTIONARYVAR
  5
13C
102
{ACAD_REACTORS
330
129
102
}
330
129
100
DictionaryVariables
280
     0
  1
1
  0
ENDSEC
  0
EOF
