  0
SECTION
  2
HEADER
  9
$ACADVER
  1
AC1014
  9
$ACADMAINTVER
 70
     9
  9
$DWGCODEPAGE
  3
ANSI_1252
  9
$INSBASE
 10
0.0
 20
0.0
 30
0.0
  9
$EXTMIN
 10
-2.030000000000006
 20
-7.385000000000001
 30
0.0
  9
$EXTMAX
 10
7.530000000000001
 20
0.3500000000000005
 30
0.0
  9
$LIMMIN
 10
0.0
 20
0.0
  9
$LIMMAX
 10
12.0
 20
9.0
  9
$ORTHOMODE
 70
     0
  9
$REGENMODE
 70
     1
  9
$FILLMODE
 70
     1
  9
$QTEXTMODE
 70
     0
  9
$MIRRTEXT
 70
     0
  9
$DRAGMODE
 70
     2
  9
$LTSCALE
 40
1.0
  9
$OSMODE
 70
   511
  9
$ATTMODE
 70
     1
  9
$TEXTSIZE
 40
0.2
  9
$TRACEWID
 40
0.05
  9
$TEXTSTYLE
  7
STANDARD
  9
$CLAYER
  8
0
  9
$CELTYPE
  6
BYLAYER
  9
$CECOLOR
 62
   256
  9
$CELTSCALE
 40
1.0
  9
$DELOBJ
 70
     1
  9
$DISPSILH
 70
     0
  9
$DIMSCALE
 40
1.0
  9
$DIMASZ
 40
0.18
  9
$DIMEXO
 40
0.0625
  9
$DIMDLI
 40
0.38
  9
$DIMRND
 40
0.0
  9
$DIMDLE
 40
0.0
  9
$DIMEXE
 40
0.18
  9
$DIMTP
 40
0.0
  9
$DIMTM
 40
0.0
  9
$DIMTXT
 40
0.18
  9
$DIMCEN
 40
0.09
  9
$DIMTSZ
 40
0.0
  9
$DIMTOL
 70
     0
  9
$DIMLIM
 70
     0
  9
$DIMTIH
 70
     1
  9
$DIMTOH
 70
     1
  9
$DIMSE1
 70
     0
  9
$DIMSE2
 70
     0
  9
$DIMTAD
 70
     0
  9
$DIMZIN
 70
     0
  9
$DIMBLK
  1

  9
$DIMASO
 70
     1
  9
$DIMSHO
 70
     1
  9
$DIMPOST
  1

  9
$DIMAPOST
  1

  9
$DIMALT
 70
     0
  9
$DIMALTD
 70
     2
  9
$DIMALTF
 40
25.4
  9
$DIMLFAC
 40
1.0
  9
$DIMTOFL
 70
     0
  9
$DIMTVP
 40
0.0
  9
$DIMTIX
 70
     0
  9
$DIMSOXD
 70
     0
  9
$DIMSAH
 70
     0
  9
$DIMBLK1
  1

  9
$DIMBLK2
  1

  9
$DIMSTYLE
  2
STANDARD
  9
$DIMCLRD
 70
     0
  9
$DIMCLRE
 70
     0
  9
$DIMCLRT
 70
     0
  9
$DIMTFAC
 40
1.0
  9
$DIMGAP
 40
0.09
  9
$DIMJUST
 70
     0
  9
$DIMSD1
 70
     0
  9
$DIMSD2
 70
     0
  9
$DIMTOLJ
 70
     1
  9
$DIMTZIN
 70
     0
  9
$DIMALTZ
 70
     0
  9
$DIMALTTZ
 70
     0
  9
$DIMFIT
 70
     5
  9
$DIMUPT
 70
     0
  9
$DIMUNIT
 70
     2
  9
$DIMDEC
 70
     4
  9
$DIMTDEC
 70
     4
  9
$DIMALTU
 70
     2
  9
$DIMALTTD
 70
     2
  9
$DIMTXSTY
  7
STANDARD
  9
$DIMAUNIT
 70
     0
  9
$LUNITS
 70
     2
  9
$LUPREC
 70
     4
  9
$SKETCHINC
 40
0.1
  9
$FILLETRAD
 40
0.0
  9
$AUNITS
 70
     0
  9
$AUPREC
 70
     0
  9
$MENU
  1
.
  9
$ELEVATION
 40
0.0
  9
$PELEVATION
 40
0.0
  9
$THICKNESS
 40
0.0
  9
$LIMCHECK
 70
     0
  9
$CHAMFERA
 40
0.0
  9
$CHAMFERB
 40
0.0
  9
$CHAMFERC
 40
0.0
  9
$CHAMFERD
 40
0.0
  9
$SKPOLY
 70
     0
  9
$TDCREATE
 40
2452642.855050926
  9
$TDUPDATE
 40
2458236.886021111
  9
$TDINDWG
 40
0.0123339352
  9
$TDUSRTIMER
 40
0.0396340856
  9
$USRTIMER
 70
     1
  9
$ANGBASE
 50
0.0
  9
$ANGDIR
 70
     0
  9
$PDMODE
 70
     0
  9
$PDSIZE
 40
0.0
  9
$PLINEWID
 40
0.0
  9
$COORDS
 70
     1
  9
$SPLFRAME
 70
     0
  9
$SPLINETYPE
 70
     6
  9
$SPLINESEGS
 70
     8
  9
$ATTDIA
 70
     0
  9
$ATTREQ
 70
     1
  9
$HANDLING
 70
     1
  9
$HANDSEED
  5
26C
  9
$SURFTAB1
 70
     6
  9
$SURFTAB2
 70
     6
  9
$SURFTYPE
 70
     6
  9
$SURFU
 70
     6
  9
$SURFV
 70
     6
  9
$UCSNAME
  2

  9
$UCSORG
 10
0.0
 20
0.0
 30
0.0
  9
$UCSXDIR
 10
1.0
 20
0.0
 30
0.0
  9
$UCSYDIR
 10
0.0
 20
1.0
 30
0.0
  9
$PUCSNAME
  2

  9
$PUCSORG
 10
0.0
 20
0.0
 30
0.0
  9
$PUCSXDIR
 10
1.0
 20
0.0
 30
0.0
  9
$PUCSYDIR
 10
0.0
 20
1.0
 30
0.0
  9
$USERI1
 70
     0
  9
$USERI2
 70
     0
  9
$USERI3
 70
     0
  9
$USERI4
 70
     0
  9
$USERI5
 70
     0
  9
$USERR1
 40
0.0
  9
$USERR2
 40
0.0
  9
$USERR3
 40
0.0
  9
$USERR4
 40
0.0
  9
$USERR5
 40
0.0
  9
$WORLDVIEW
 70
     1
  9
$SHADEDGE
 70
     3
  9
$SHADEDIF
 70
    70
  9
$TILEMODE
 70
     1
  9
$MAXACTVP
 70
    64
  9
$PINSBASE
 10
0.0
 20
0.0
 30
0.0
  9
$PLIMCHECK
 70
     0
  9
$PEXTMIN
 10
0.0
 20
0.0
 30
0.0
  9
$PEXTMAX
 10
0.0
 20
0.0
 30
0.0
  9
$PLIMMIN
 10
0.0
 20
0.0
  9
$PLIMMAX
 10
0.0
 20
0.0
  9
$UNITMODE
 70
     0
  9
$VISRETAIN
 70
     1
  9
$PLINEGEN
 70
     0
  9
$PSLTSCALE
 70
     1
  9
$TREEDEPTH
 70
  3020
  9
$PICKSTYLE
 70
     1
  9
$CMLSTYLE
  2
STANDARD
  9
$CMLJUST
 70
     0
  9
$CMLSCALE
 40
1.0
  9
$PROXYGRAPHICS
 70
     1
  9
$MEASUREMENT
 70
     0
  0
ENDSEC
  0
SECTION
  2
CLASSES
  0
CLASS
  1
ACDBDICTIONARYWDFLT
  2
AcDbDictionaryWithDefault
  3
ObjectDBX Classes
 90
        0
280
     0
281
     0
  0
CLASS
  1
ACDBPLACEHOLDER
  2
AcDbPlaceHolder
  3
ObjectDBX Classes
 90
        0
280
     0
281
     0
  0
CLASS
  1
LAYOUT
  2
AcDbLayout
  3
ObjectDBX Classes
 90
        0
280
     0
281
     0
  0
CLASS
  1
DICTIONARYVAR
  2
AcDbDictionaryVar
  3
ObjectDBX Classes
 90
        0
280
     0
281
     0
  0
CLASS
  1
TABLESTYLE
  2
AcDbTableStyle
  3
ObjectDBX Classes
 90
     4095
280
     0
281
     0
  0
CLASS
  1
MATERIAL
  2
AcDbMaterial
  3
ObjectDBX Classes
 90
     1153
280
     0
281
     0
  0
CLASS
  1
VISUALSTYLE
  2
AcDbVisualStyle
  3
ObjectDBX Classes
 90
     4095
280
     0
281
     0
  0
CLASS
  1
SCALE
  2
AcDbScale
  3
ObjectDBX Classes
 90
     1153
280
     0
281
     0
  0
CLASS
  1
CELLSTYLEMAP
  2
AcDbCellStyleMap
  3
ObjectDBX Classes
 90
     1152
280
     0
281
     0
  0
CLASS
  1
RASTERVARIABLES
  2
AcDbRasterVariables
  3
ISM
 90
        0
280
     0
281
     0
  0
CLASS
  1
SUN
  2
AcDbSun
  3
SCENEOE
 90
     1153
280
     0
281
     0
  0
CLASS
  1
MLEADERSTYLE
  2
AcDbMLeaderStyle
  3
ACDB_MLEADERSTYLE_CLASS
 90
     4095
280
     0
281
     0
  0
CLASS
  1
XRECORD
  2
AcDbXrecord
  3
ObjectDBX Classes
 90
        0
280
     0
281
     0
  0
CLASS
  1
LWPOLYLINE
  2
AcDbPolyline
  3
ObjectDBX Classes
 90
        0
280
     0
281
     1
  0
CLASS
  1
HATCH
  2
AcDbHatch
  3
ObjectDBX Classes
 90
        0
280
     0
281
     1
  0
CLASS
  1
DIMASSOC
  2
AcDbDimAssoc
  3
"AcDbDimAssoc|Product Desc:     AcDim ARX App For Dimension|Company:          Autodesk, Inc.|WEB Address:      www.autodesk.com"
 90
        0
280
     0
281
     0
  0
ENDSEC
  0
SECTION
  2
TABLES
  0
TABLE
  2
VPORT
  5
8
330
0
100
AcDbSymbolTable
 70
     1
  0
VPORT
  5
94
330
8
100
AcDbSymbolTableRecord
100
AcDbViewportTableRecord
  2
*ACTIVE
 70
     0
 10
0.0
 20
0.0
 11
1.0
 21
1.0
 12
26.81481216029086
 22
14.98295128178872
 13
0.0
 23
0.0
 14
0.5
 24
0.5
 15
0.5
 25
0.5
 16
0.0
 26
0.0
 36
1.0
 17
-27.6695935659798
 27
-19.53870295786203
 37
0.0
 40
21.44229497986485
 41
1.304971319311663
 42
50.0
 43
0.0
 44
0.0
 50
0.0
 51
0.0
 71
    16
 72
  1000
 73
     1
 74
     3
 75
     0
 76
     0
 77
     0
 78
     0
  0
ENDTAB
  0
TABLE
  2
LTYPE
  5
5
330
0
100
AcDbSymbolTable
 70
     1
  0
LTYPE
  5
14
330
5
100
AcDbSymbolTableRecord
100
AcDbLinetypeTableRecord
  2
BYBLOCK
 70
     0
  3

 72
    65
 73
     0
 40
0.0
  0
LTYPE
  5
15
330
5
100
AcDbSymbolTableRecord
100
AcDbLinetypeTableRecord
  2
BYLAYER
 70
     0
  3

 72
    65
 73
     0
 40
0.0
  0
LTYPE
  5
16
330
5
100
AcDbSymbolTableRecord
100
AcDbLinetypeTableRecord
  2
CONTINUOUS
 70
     0
  3
Solid line
 72
    65
 73
     0
 40
0.0
  0
ENDTAB
  0
TABLE
  2
LAYER
  5
2
330
0
100
AcDbSymbolTable
 70
     2
  0
LAYER
  5
10
330
2
100
AcDbSymbolTableRecord
100
AcDbLayerTableRecord
  2
0
 70
     0
 62
     7
  6
CONTINUOUS
  0
LAYER
  5
249
330
2
100
AcDbSymbolTableRecord
100
AcDbLayerTableRecord
  2
DEFPOINTS
 70
     0
 62
     7
  6
CONTINUOUS
  0
ENDTAB
  0
TABLE
  2
STYLE
  5
3
330
0
100
AcDbSymbolTable
 70
     2
  0
STYLE
  5
11
330
3
100
AcDbSymbolTableRecord
100
AcDbTextStyleTableRecord
  2
STANDARD
 70
     0
 40
0.0
 41
1.0
 50
0.0
 71
     0
 42
0.2
  3
arial.ttf
  4

1001
ACAD
1000
Arial
1071
        0
  0
STYLE
  5
125
330
3
100
AcDbSymbolTableRecord
100
AcDbTextStyleTableRecord
  2
ANNOTATIVE
 70
     0
 40
0.0
 41
1.0
 50
0.0
 71
     0
 42
0.2
  3
arial.ttf
  4

1001
ACAD
1000
Arial
1071
        0
1001
ACADANNOTATIVE
1000
AnnotativeData
1002
{
1070
     1
1070
     1
1002
}
  0
ENDTAB
  0
TABLE
  2
VIEW
  5
6
330
0
100
AcDbSymbolTable
 70
     0
  0
ENDTAB
  0
TABLE
  2
UCS
  5
7
330
0
100
AcDbSymbolTable
 70
     0
  0
ENDTAB
  0
TABLE
  2
APPID
  5
9
330
0
100
AcDbSymbolTable
 70
     2
  0
APPID
  5
12
330
9
100
AcDbSymbolTableRecord
100
AcDbRegAppTableRecord
  2
ACAD
 70
     0
  0
APPID
  5
126
330
9
100
AcDbSymbolTableRecord
100
AcDbRegAppTableRecord
  2
ACADANNOTATIVE
 70
     0
  0
ENDTAB
  0
TABLE
  2
DIMSTYLE
  5
A
330
0
100
AcDbSymbolTable
 70
     2
  0
DIMSTYLE
105
27
330
A
100
AcDbSymbolTableRecord
100
AcDbDimStyleTableRecord
  2
STANDARD
 70
     0
  3

  4

  5

  6

  7

 40
1.0
 41
0.18
 42
0.0625
 43
0.38
 44
0.18
 45
0.0
 46
0.0
 47
0.0
 48
0.0
140
0.18
141
0.09
142
0.0
143
25.4
144
1.0
145
0.0
146
1.0
147
0.09
 71
     0
 72
     0
 73
     1
 74
     1
 75
     0
 76
     0
 77
     0
 78
     0
170
     0
171
     2
172
     0
173
     0
174
     0
175
     0
176
     0
177
     0
178
     0
270
     2
271
     4
272
     4
273
     2
274
     2
340
11
275
     0
280
     0
281
     0
282
     0
283
     1
284
     0
285
     0
286
     0
287
     3
288
     0
  0
DIMSTYLE
105
127
330
A
100
AcDbSymbolTableRecord
100
AcDbDimStyleTableRecord
  2
ANNOTATIVE
 70
     0
  3

  4

  5

  6

  7

 40
0.0
 41
0.18
 42
0.0625
 43
0.38
 44
0.18
 45
0.0
 46
0.0
 47
0.0
 48
0.0
140
0.18
141
0.09
142
0.0
143
25.4
144
1.0
145
0.0
146
1.0
147
0.09
 71
     0
 72
     0
 73
     1
 74
     1
 75
     0
 76
     0
 77
     0
 78
     0
170
     0
171
     2
172
     0
173
     0
174
     0
175
     0
176
     0
177
     0
178
     0
270
     2
271
     4
272
     4
273
     2
274
     2
340
11
275
     0
280
     0
281
     0
282
     0
283
     1
284
     0
285
     0
286
     0
287
     3
288
     0
1001
ACADANNOTATIVE
1000
AnnotativeData
1002
{
1070
     1
1070
     1
1002
}
  0
ENDTAB
  0
TABLE
  2
BLOCK_RECORD
  5
1
330
0
100
AcDbSymbolTable
 70
     3
  0
BLOCK_RECORD
  5
1F
330
1
100
AcDbSymbolTableRecord
100
AcDbBlockTableRecord
  2
*MODEL_SPACE
  0
BLOCK_RECORD
  5
58
330
1
100
AcDbSymbolTableRecord
100
AcDbBlockTableRecord
  2
*PAPER_SPACE
  0
BLOCK_RECORD
  5
5D
330
1
100
AcDbSymbolTableRecord
100
AcDbBlockTableRecord
  2
*PAPER_SPACE0
  0
BLOCK_RECORD
  5
24D
330
1
100
AcDbSymbolTableRecord
100
AcDbBlockTableRecord
  2
*D1
  0
BLOCK_RECORD
  5
25D
330
1
100
AcDbSymbolTableRecord
100
AcDbBlockTableRecord
  2
*D2
  0
ENDTAB
  0
ENDSEC
  0
SECTION
  2
BLOCKS
  0
BLOCK
  5
20
330
1F
100
AcDbEntity
  8
0
100
AcDbBlockBegin
  2
*MODEL_SPACE
 70
     0
 10
0.0
 20
0.0
 30
0.0
  3
*MODEL_SPACE
  1

  0
ENDBLK
  5
21
330
1F
100
AcDbEntity
  8
0
100
AcDbBlockEnd
  0
BLOCK
  5
5A
330
58
100
AcDbEntity
 67
     1
  8
0
100
AcDbBlockBegin
  2
*PAPER_SPACE
 70
     0
 10
0.0
 20
0.0
 30
0.0
  3
*PAPER_SPACE
  1

  0
ENDBLK
  5
5B
330
58
100
AcDbEntity
 67
     1
  8
0
100
AcDbBlockEnd
  0
BLOCK
  5
5F
330
5D
100
AcDbEntity
  8
0
100
AcDbBlockBegin
  2
*PAPER_SPACE0
 70
     0
 10
0.0
 20
0.0
 30
0.0
  3
*PAPER_SPACE0
  1

  0
ENDBLK
  5
60
330
5D
100
AcDbEntity
  8
0
100
AcDbBlockEnd
  0
BLOCK
  5
24E
330
24D
100
AcDbEntity
  8
0
100
AcDbBlockBegin
  2
*D1
 70
     1
 10
0.0
 20
0.0
 30
0.0
  3
*D1
  1

  0
LINE
  5
250
330
24D
100
AcDbEntity
  8
0
 62
     0
100
AcDbLine
 10
0.5
 20
0.4125000000000001
 30
0.0
 11
0.5
 21
0.5848794889610589
 31
0.0
  0
LINE
  5
251
330
24D
100
AcDbEntity
  8
0
 62
     0
100
AcDbLine
 10
0.9999999999999999
 20
0.4125000000000001
 30
0.0
 11
0.9999999999999999
 21
0.5848794889610589
 31
0.0
  0
LINE
  5
252
330
24D
100
AcDbEntity
  8
0
 62
     0
100
AcDbLine
 10
0.32
 20
0.404879488961059
 30
0.0
 11
0.14
 21
0.404879488961059
 31
0.0
  0
LINE
  5
253
330
24D
100
AcDbEntity
  8
0
 62
     0
100
AcDbLine
 10
1.18
 20
0.404879488961059
 30
0.0
 11
1.36
 21
0.404879488961059
 31
0.0
  0
SOLID
  5
254
330
24D
100
AcDbEntity
  8
0
 62
     0
100
AcDbTrace
 10
0.32
 20
0.3748794889610589
 30
0.0
 11
0.32
 21
0.434879488961059
 31
0.0
 12
0.5
 22
0.404879488961059
 32
0.0
 13
0.5
 23
0.404879488961059
 33
0.0
  0
SOLID
  5
255
330
24D
100
AcDbEntity
  8
0
 62
     0
100
AcDbTrace
 10
1.18
 20
0.434879488961059
 30
0.0
 11
1.18
 21
0.3748794889610589
 31
0.0
 12
0.9999999999999999
 22
0.404879488961059
 32
0.0
 13
0.9999999999999999
 23
0.404879488961059
 33
0.0
  0
MTEXT
  5
256
330
24D
100
AcDbEntity
  8
0
 62
     0
100
AcDbMText
 10
0.75
 20
0.8117694889610589
 30
0.0
 40
0.18
 41
0.0
 71
     5
 72
     1
  1
\A1;0.5000
  0
POINT
  5
257
330
24D
100
AcDbEntity
  8
DEFPOINTS
 62
     0
100
AcDbPoint
 10
0.5
 20
0.3500000000000001
 30
0.0
  0
POINT
  5
258
330
24D
100
AcDbEntity
  8
DEFPOINTS
 62
     0
100
AcDbPoint
 10
0.9999999999999999
 20
0.3500000000000001
 30
0.0
  0
POINT
  5
259
330
24D
100
AcDbEntity
  8
DEFPOINTS
 62
     0
100
AcDbPoint
 10
0.9999999999999999
 20
0.404879488961059
 30
0.0
  0
ENDBLK
  5
24F
330
24D
100
AcDbEntity
  8
0
100
AcDbBlockEnd
  0
BLOCK
  5
25E
330
25D
100
AcDbEntity
  8
0
100
AcDbBlockBegin
  2
*D2
 70
     1
 10
0.0
 20
0.0
 30
0.0
  3
*D2
  1

  0
LINE
  5
260
330
25D
100
AcDbEntity
  8
0
 62
     0
100
AcDbLine
 10
-0.0975000000000001
 20
0.0
 30
0.0
 11
0.6753820394319
 21
0.0
 31
0.0
  0
LINE
  5
261
330
25D
100
AcDbEntity
  8
0
 62
     0
100
AcDbLine
 10
0.0125
 20
-1.32
 30
0.0
 11
0.6753820394318999
 21
-1.32
 31
0.0
  0
LINE
  5
262
330
25D
100
AcDbEntity
  8
0
 62
     0
100
AcDbLine
 10
0.4953820394319
 20
-0.18
 30
0.0
 11
0.4953820394319
 21
-0.4781099999999999
 31
0.0
  0
LINE
  5
263
330
25D
100
AcDbEntity
  8
0
 62
     0
100
AcDbLine
 10
0.4953820394319
 20
-1.14
 30
0.0
 11
0.4953820394319
 21
-0.8418899999999998
 31
0.0
  0
SOLID
  5
264
330
25D
100
AcDbEntity
  8
0
 62
     0
100
AcDbTrace
 10
0.5253820394319
 20
-0.18
 30
0.0
 11
0.4653820394319
 21
-0.18
 31
0.0
 12
0.4953820394319
 22
0.0
 32
0.0
 13
0.4953820394319
 23
0.0
 33
0.0
  0
SOLID
  5
265
330
25D
100
AcDbEntity
  8
0
 62
     0
100
AcDbTrace
 10
0.4653820394318999
 20
-1.14
 30
0.0
 11
0.5253820394319
 21
-1.14
 31
0.0
 12
0.4953820394319
 22
-1.32
 32
0.0
 13
0.4953820394319
 23
-1.32
 33
0.0
  0
MTEXT
  5
266
330
25D
100
AcDbEntity
  8
0
 62
     0
100
AcDbMText
 10
0.4953820394319
 20
-0.6599999999999999
 30
0.0
 40
0.18
 41
0.0
 71
     5
 72
     1
  1
\A1;1.3200
  0
POINT
  5
267
330
25D
100
AcDbEntity
  8
DEFPOINTS
 62
     0
100
AcDbPoint
 10
-0.1600000000000001
 20
0.0
 30
0.0
  0
POINT
  5
268
330
25D
100
AcDbEntity
  8
DEFPOINTS
 62
     0
100
AcDbPoint
 10
-0.05
 20
-1.32
 30
0.0
  0
POINT
  5
269
330
25D
100
AcDbEntity
  8
DEFPOINTS
 62
     0
100
AcDbPoint
 10
0.4953820394319
 20
-1.32
 30
0.0
  0
ENDBLK
  5
25F
330
25D
100
AcDbEntity
  8
0
100
AcDbBlockEnd
  0
ENDSEC
  0
SECTION
  2
ENTITIES
  0
CIRCLE
  5
1A3
330
1F
100
AcDbEntity
  8
0
100
AcDbCircle
 10
-0.8500000000000001
 20
-0.6599999999999997
 30
0.0
 40
0.425
  0
LINE
  5
1A4
330
1F
100
AcDbEntity
  8
0
100
AcDbLine
 10
6.210000000000001
 20
-0.2349999999999999
 30
0.0
 11
6.51
 21
-0.2349999999999999
 31
0.0
  0
LINE
  5
1A5
330
1F
100
AcDbEntity
  8
0
100
AcDbLine
 10
6.210000000000001
 20
-1.085
 30
0.0
 11
6.51
 21
-1.085
 31
0.0
  0
ARC
  5
1A6
330
1F
100
AcDbEntity
  8
0
100
AcDbCircle
 10
6.51
 20
-0.6599999999999997
 30
0.0
 40
0.425
100
AcDbArc
 50
270.0
 51
90.0
  0
ARC
  5
1A7
330
1F
100
AcDbEntity
  8
0
100
AcDbCircle
 10
6.210000000000001
 20
-0.6599999999999997
 30
0.0
 40
0.425
100
AcDbArc
 50
90.0
 51
270.0
  0
CIRCLE
  5
1AE
330
1F
100
AcDbEntity
  8
0
100
AcDbCircle
 10
5.55
 20
-1.32
 30
0.0
 40
0.3
  0
CIRCLE
  5
1AF
330
1F
100
AcDbEntity
  8
0
100
AcDbCircle
 10
3.949999999999999
 20
-1.32
 30
0.0
 40
0.3
  0
CIRCLE
  5
1B0
330
1F
100
AcDbEntity
  8
0
100
AcDbCircle
 10
3.15
 20
-1.32
 30
0.0
 40
0.3
  0
CIRCLE
  5
1B1
330
1F
100
AcDbEntity
  8
0
100
AcDbCircle
 10
2.35
 20
-1.32
 30
0.0
 40
0.3
  0
CIRCLE
  5
1B2
330
1F
100
AcDbEntity
  8
0
100
AcDbCircle
 10
1.55
 20
-1.32
 30
0.0
 40
0.3
  0
CIRCLE
  5
1B3
330
1F
100
AcDbEntity
  8
0
100
AcDbCircle
 10
-0.05
 20
-1.32
 30
0.0
 40
0.3
  0
LWPOLYLINE
  5
1B4
330
1F
100
AcDbEntity
  8
0
100
AcDbPolyline
 90
        4
 70
     1
 43
0.0
 10
5.34
 20
-0.3499999999999983
 10
5.34
 20
0.350000000000001
 10
5.66
 20
0.350000000000001
 10
5.66
 20
-0.3499999999999983
  0
LWPOLYLINE
  5
1B5
330
1F
100
AcDbEntity
  8
0
100
AcDbPolyline
 90
        4
 70
     1
 43
0.0
 10
4.84
 20
-0.3499999999999992
 10
4.84
 20
0.350000000000001
 10
5.16
 20
0.350000000000001
 10
5.16
 20
-0.3499999999999992
  0
LWPOLYLINE
  5
1B6
330
1F
100
AcDbEntity
  8
0
100
AcDbPolyline
 90
        4
 70
     1
 43
0.0
 10
4.34
 20
-0.3499999999999992
 10
4.34
 20
0.350000000000001
 10
4.66
 20
0.350000000000001
 10
4.66
 20
-0.3499999999999992
  0
LWPOLYLINE
  5
1B7
330
1F
100
AcDbEntity
  8
0
100
AcDbPolyline
 90
        4
 70
     1
 43
0.0
 10
3.84
 20
-0.3499999999999992
 10
3.84
 20
0.350000000000001
 10
4.16
 20
0.350000000000001
 10
4.16
 20
-0.3499999999999992
  0
LWPOLYLINE
  5
1B8
330
1F
100
AcDbEntity
  8
0
100
AcDbPolyline
 90
        4
 70
     1
 43
0.0
 10
3.34
 20
-0.3499999999999992
 10
3.34
 20
0.350000000000001
 10
3.66
 20
0.350000000000001
 10
3.66
 20
-0.3499999999999992
  0
LWPOLYLINE
  5
1B9
330
1F
100
AcDbEntity
  8
0
100
AcDbPolyline
 90
        4
 70
     1
 43
0.0
 10
2.84
 20
-0.3499999999999992
 10
2.84
 20
0.350000000000001
 10
3.16
 20
0.350000000000001
 10
3.16
 20
-0.3499999999999992
  0
LWPOLYLINE
  5
1BA
330
1F
100
AcDbEntity
  8
0
100
AcDbPolyline
 90
        4
 70
     1
 43
0.0
 10
2.34
 20
-0.3499999999999992
 10
2.34
 20
0.3500000000000001
 10
2.66
 20
0.3500000000000001
 10
2.66
 20
-0.3499999999999992
  0
LWPOLYLINE
  5
1BB
330
1F
100
AcDbEntity
  8
0
100
AcDbPolyline
 90
        4
 70
     1
 43
0.0
 10
1.84
 20
-0.3499999999999992
 10
1.84
 20
0.3500000000000001
 10
2.16
 20
0.3500000000000001
 10
2.16
 20
-0.3499999999999992
  0
LWPOLYLINE
  5
1BC
330
1F
100
AcDbEntity
  8
0
100
AcDbPolyline
 90
        4
 70
     1
 43
0.0
 10
1.34
 20
-0.3500000000000001
 10
1.34
 20
0.3500000000000001
 10
1.66
 20
0.3500000000000001
 10
1.66
 20
-0.3500000000000001
  0
LWPOLYLINE
  5
1BD
102
{ACAD_REACTORS
330
24C
102
}
330
1F
100
AcDbEntity
  8
0
100
AcDbPolyline
 90
        4
 70
     1
 43
0.0
 10
0.8399999999999999
 20
-0.3500000000000001
 10
0.8399999999999999
 20
0.3500000000000001
 10
1.16
 20
0.3500000000000001
 10
1.16
 20
-0.3500000000000001
  0
LWPOLYLINE
  5
1BE
102
{ACAD_REACTORS
330
24C
102
}
330
1F
100
AcDbEntity
  8
0
100
AcDbPolyline
 90
        4
 70
     1
 43
0.0
 10
0.3399999999999999
 20
-0.3500000000000001
 10
0.3399999999999999
 20
0.3500000000000001
 10
0.6600000000000001
 20
0.3500000000000001
 10
0.6600000000000001
 20
-0.3500000000000001
  0
LWPOLYLINE
  5
1BF
102
{ACAD_REACTORS
102
}
330
1F
100
AcDbEntity
  8
0
100
AcDbPolyline
 90
        4
 70
     1
 43
0.0
 10
-0.1600000000000001
 20
-0.3500000000000001
 10
-0.1600000000000001
 20
0.3500000000000001
 10
0.1600000000000001
 20
0.3500000000000001
 10
0.1600000000000001
 20
-0.3500000000000001
  0
CIRCLE
  5
1C6
330
1F
100
AcDbEntity
  8
0
100
AcDbCircle
 10
0.3499999999999996
 20
-2.01
 30
0.0
 40
0.3
  0
CIRCLE
  5
1C7
330
1F
100
AcDbEntity
  8
0
100
AcDbCircle
 10
1.15
 20
-2.01
 30
0.0
 40
0.3
  0
CIRCLE
  5
1C8
330
1F
100
AcDbEntity
  8
0
100
AcDbCircle
 10
1.95
 20
-2.01
 30
0.0
 40
0.3
  0
CIRCLE
  5
1C9
330
1F
100
AcDbEntity
  8
0
100
AcDbCircle
 10
3.55
 20
-2.01
 30
0.0
 40
0.3
  0
CIRCLE
  5
1CA
330
1F
100
AcDbEntity
  8
0
100
AcDbCircle
 10
4.35
 20
-2.01
 30
0.0
 40
0.3
  0
CIRCLE
  5
1CB
330
1F
100
AcDbEntity
  8
0
100
AcDbCircle
 10
5.149999999999999
 20
-2.01
 30
0.0
 40
0.3
  0
LINE
  5
1D3
330
1F
100
AcDbEntity
  8
0
100
AcDbLine
 10
-0.9300000000000002
 20
-1.21
 30
0.0
 11
-1.58
 21
-1.21
 31
0.0
  0
ARC
  5
1D4
330
1F
100
AcDbEntity
  8
0
100
AcDbCircle
 10
-0.9300000000000002
 20
-1.66
 30
0.0
 40
0.45
100
AcDbArc
 50
270.0
 51
90.0
  0
ARC
  5
1D5
330
1F
100
AcDbEntity
  8
0
100
AcDbCircle
 10
-1.58
 20
-2.16
 30
0.0
 40
0.45
100
AcDbArc
 50
180.0
 51
0.0
  0
LINE
  5
1D6
330
1F
100
AcDbEntity
  8
0
100
AcDbLine
 10
-2.03
 20
-1.66
 30
0.0
 11
-2.03
 21
-2.16
 31
0.0
  0
ARC
  5
1D7
330
1F
100
AcDbEntity
  8
0
100
AcDbCircle
 10
-1.58
 20
-1.66
 30
0.0
 40
0.45
100
AcDbArc
 50
90.0
 51
180.0
  0
LINE
  5
1D8
330
1F
100
AcDbEntity
  8
0
100
AcDbLine
 10
-0.9300000000000002
 20
-2.11
 30
0.0
 11
-1.13
 21
-2.11
 31
0.0
  0
LINE
  5
1D9
330
1F
100
AcDbEntity
  8
0
100
AcDbLine
 10
-1.13
 20
-2.16
 30
0.0
 11
-1.13
 21
-2.11
 31
0.0
  0
LINE
  5
1E1
330
1F
100
AcDbEntity
  8
0
100
AcDbLine
 10
6.43
 20
-1.210000000000004
 30
0.0
 11
7.079999999999998
 21
-1.210000000000005
 31
0.0
  0
ARC
  5
1E2
330
1F
100
AcDbEntity
  8
0
100
AcDbCircle
 10
6.43
 20
-1.660000000000004
 30
0.0
 40
0.45
100
AcDbArc
 50
90.0
 51
269.9999999999998
  0
ARC
  5
1E3
330
1F
100
AcDbEntity
  8
0
100
AcDbCircle
 10
7.079999999999998
 20
-2.160000000000005
 30
0.0
 40
0.45
100
AcDbArc
 50
179.9999999999999
 51
359.9999999999998
  0
LINE
  5
1E4
330
1F
100
AcDbEntity
  8
0
100
AcDbLine
 10
7.529999999999998
 20
-1.660000000000006
 30
0.0
 11
7.529999999999998
 21
-2.160000000000006
 31
0.0
  0
ARC
  5
1E5
330
1F
100
AcDbEntity
  8
0
100
AcDbCircle
 10
7.079999999999998
 20
-1.660000000000005
 30
0.0
 40
0.45
100
AcDbArc
 50
359.9999999999998
 51
90.0
  0
LINE
  5
1E6
330
1F
100
AcDbEntity
  8
0
100
AcDbLine
 10
6.429999999999998
 20
-2.110000000000004
 30
0.0
 11
6.629999999999999
 21
-2.110000000000004
 31
0.0
  0
LINE
  5
1E7
330
1F
100
AcDbEntity
  8
0
100
AcDbLine
 10
6.629999999999999
 20
-2.160000000000004
 30
0.0
 11
6.629999999999999
 21
-2.110000000000004
 31
0.0
  0
LINE
  5
1EC
330
1F
100
AcDbEntity
  8
0
100
AcDbLine
 10
7.530000000000001
 20
-6.385
 30
0.0
 11
7.530000000000001
 21
-6.935
 31
0.0
  0
ARC
  5
1ED
330
1F
100
AcDbEntity
  8
0
100
AcDbCircle
 10
7.08
 20
-6.385
 30
0.0
 40
0.45
100
AcDbArc
 50
0.0
 51
180.0
  0
LINE
  5
1EE
330
1F
100
AcDbEntity
  8
0
100
AcDbLine
 10
6.629999999999999
 20
-6.385
 30
0.0
 11
6.629999999999999
 21
-6.935
 31
0.0
  0
ARC
  5
1EF
330
1F
100
AcDbEntity
  8
0
100
AcDbCircle
 10
7.08
 20
-6.935
 30
0.0
 40
0.45
100
AcDbArc
 50
180.0
 51
0.0
  0
LINE
  5
1F4
330
1F
100
AcDbEntity
  8
0
100
AcDbLine
 10
-2.030000000000007
 20
-6.384999999999994
 30
0.0
 11
-2.030000000000007
 21
-6.934999999999993
 31
0.0
  0
ARC
  5
1F5
330
1F
100
AcDbEntity
  8
0
100
AcDbCircle
 10
-1.580000000000007
 20
-6.384999999999994
 30
0.0
 40
0.45
100
AcDbArc
 50
0.0
 51
180.0
  0
LINE
  5
1F6
330
1F
100
AcDbEntity
  8
0
100
AcDbLine
 10
-1.130000000000007
 20
-6.384999999999994
 30
0.0
 11
-1.130000000000007
 21
-6.934999999999997
 31
0.0
  0
ARC
  5
1F7
330
1F
100
AcDbEntity
  8
0
100
AcDbCircle
 10
-1.580000000000007
 20
-6.934999999999997
 30
0.0
 40
0.45
100
AcDbArc
 50
179.9999999999998
 51
0.0
  0
ENDSEC
  0
SECTION
  2
OBJECTS
  0
DICTIONARY
  5
C
330
0
100
AcDbDictionary
  3
ACAD_DETAILVIEWSTYLE
350
122
  3
ACAD_GROUP
350
D
  3
ACAD_IMAGE_VARS
350
DC
  3
ACAD_MLINESTYLE
350
17
  3
ACAD_SCALELIST
350
1FD
  3
ACAD_SECTIONVIEWSTYLE
350
123
  3
ACDBVARIABLEDICTIONARY
350
66
  3
APPDATA
350
E1
  3
DWGPROPS
350
26B
  0
DICTIONARY
  5
122
102
{ACAD_REACTORS
330
C
102
}
330
C
100
AcDbDictionary
  0
DICTIONARY
  5
D
102
{ACAD_REACTORS
330
C
102
}
330
C
100
AcDbDictionary
  0
RASTERVARIABLES
  5
DC
102
{ACAD_REACTORS
330
C
102
}
330
C
100
AcDbRasterVariables
 90
        0
 70
     1
 71
     1
 72
     5
  0
DICTIONARY
  5
17
102
{ACAD_REACTORS
330
C
102
}
330
C
100
AcDbDictionary
  3
STANDARD
350
18
  0
DICTIONARY
  5
1FD
102
{ACAD_REACTORS
330
C
102
}
330
C
100
AcDbDictionary
  0
DICTIONARY
  5
123
102
{ACAD_REACTORS
330
C
102
}
330
C
100
AcDbDictionary
  0
DICTIONARY
  5
66
102
{ACAD_REACTORS
330
C
102
}
330
C
100
AcDbDictionary
  3
DIMASSOC
350
67
  3
HIDETEXT
350
6B
  0
DICTIONARY
  5
E1
102
{ACAD_REACTORS
330
C
102
}
330
C
100
AcDbDictionary
  0
XRECORD
  5
26B
102
{ACAD_REACTORS
330
C
102
}
330
C
100
AcDbXrecord
  1
DWGPROPS COOKIE
  2

  3

  4

  6

  7

  8
Kevin
  9

300
=
301
=
302
=
303
=
304
=
305
=
306
=
307
=
308
=
309
=
 40
0.0
 41
2452643.063384259
 42
2458237.094354445
  1

 90
        0
  0
MLINESTYLE
  5
18
102
{ACAD_REACTORS
330
17
102
}
330
17
100
AcDbMlineStyle
  2
STANDARD
 70
     0
  3

 62
   256
 51
90.0
 52
90.0
 71
     2
 49
0.5
 62
   256
  6
BYLAYER
 49
-0.5
 62
   256
  6
BYLAYER
  0
DICTIONARYVAR
  5
67
102
{ACAD_REACTORS
330
66
102
}
330
66
100
DictionaryVariables
280
     0
  1
2
  0
DICTIONARYVAR
  5
6B
102
{ACAD_REACTORS
330
66
102
}
330
66
100
DictionaryVariables
280
     0
  1
1
  0
ENDSEC
  0
EOF
